<svg width="54" height="54" viewBox="0 0 54 54" fill="none" xmlns="http://www.w3.org/2000/svg">
<g filter="url(#filter0_d_591_4543)">
<path d="M26.8333 51.6667C41.1007 51.6667 52.6667 40.1007 52.6667 25.8333C52.6667 11.566 41.1007 0 26.8333 0C12.566 0 1 11.566 1 25.8333C1 40.1007 12.566 51.6667 26.8333 51.6667Z" fill="#E7E7E7"/>
</g>
<path d="M40 28.1567C40.3718 27.9273 40.8701 28.2094 40.7988 28.6405C40.4223 30.9169 39.5258 33.0686 38.1801 34.9057C36.6117 37.047 34.498 38.6725 32.0863 39.592C29.6746 40.5115 27.0647 40.687 24.562 40.098C22.0592 39.5089 19.7672 38.1797 17.9541 36.2658C16.1409 34.3519 14.8816 31.9326 14.3236 29.2908C13.7655 26.649 13.9318 23.8941 14.8029 21.3485C15.674 18.8028 17.214 16.5717 19.2425 14.9161C20.9842 13.4947 23.0241 12.5481 25.1822 12.1511C25.6022 12.0739 25.8887 12.5469 25.6789 12.9189C24.5801 14.8673 24.0695 17.1334 24.2305 19.4122C24.4175 22.0595 25.4985 24.548 27.2768 26.4251C29.0551 28.3022 31.4127 29.4432 33.9206 29.6407C36.0514 29.8084 38.1705 29.2855 40 28.1567Z" fill="#707070"/>
<defs>
<filter id="filter0_d_591_4543" x="0" y="0" width="53.6667" height="53.6666" filterUnits="userSpaceOnUse" color-interpolation-filters="sRGB">
<feFlood flood-opacity="0" result="BackgroundImageFix"/>
<feColorMatrix in="SourceAlpha" type="matrix" values="0 0 0 0 0 0 0 0 0 0 0 0 0 0 0 0 0 0 127 0" result="hardAlpha"/>
<feOffset dy="1"/>
<feGaussianBlur stdDeviation="0.5"/>
<feComposite in2="hardAlpha" operator="out"/>
<feColorMatrix type="matrix" values="0 0 0 0 0 0 0 0 0 0 0 0 0 0 0 0 0 0 0.25 0"/>
<feBlend mode="normal" in2="BackgroundImageFix" result="effect1_dropShadow_591_4543"/>
<feBlend mode="normal" in="SourceGraphic" in2="effect1_dropShadow_591_4543" result="shape"/>
</filter>
</defs>
</svg>
