<svg width="53" height="53" viewBox="0 0 53 53" fill="none" xmlns="http://www.w3.org/2000/svg">
<g filter="url(#filter0_i_591_4551)">
<path d="M26.8333 52.6667C41.1007 52.6667 52.6667 41.1007 52.6667 26.8333C52.6667 12.566 41.1007 1 26.8333 1C12.566 1 1 12.566 1 26.8333C1 41.1007 12.566 52.6667 26.8333 52.6667Z" fill="#E7E7E7"/>
</g>
<path d="M26.8333 52.6667C41.1007 52.6667 52.6667 41.1007 52.6667 26.8333C52.6667 12.566 41.1007 1 26.8333 1C12.566 1 1 12.566 1 26.8333C1 41.1007 12.566 52.6667 26.8333 52.6667Z" stroke="#707070" stroke-width="0.2" stroke-linecap="round" stroke-linejoin="round"/>
<path d="M40 29.1567C40.3718 28.9273 40.8701 29.2094 40.7988 29.6405C40.4223 31.9169 39.5258 34.0686 38.1801 35.9057C36.6117 38.047 34.498 39.6725 32.0863 40.592C29.6746 41.5115 27.0647 41.687 24.562 41.098C22.0592 40.5089 19.7672 39.1797 17.9541 37.2658C16.1409 35.3519 14.8816 32.9326 14.3236 30.2908C13.7655 27.649 13.9318 24.8941 14.8029 22.3485C15.674 19.8028 17.214 17.5717 19.2425 15.9161C20.9842 14.4947 23.0241 13.5481 25.1822 13.1511C25.6022 13.0739 25.8887 13.5469 25.6789 13.9189C24.5801 15.8673 24.0695 18.1334 24.2305 20.4122C24.4175 23.0595 25.4985 25.548 27.2768 27.4251C29.0551 29.3022 31.4127 30.4432 33.9206 30.6407C36.0514 30.8084 38.1705 30.2855 40 29.1567Z" fill="#707070"/>
<defs>
<filter id="filter0_i_591_4551" x="0.899902" y="0.900024" width="51.8667" height="55.8667" filterUnits="userSpaceOnUse" color-interpolation-filters="sRGB">
<feFlood flood-opacity="0" result="BackgroundImageFix"/>
<feBlend mode="normal" in="SourceGraphic" in2="BackgroundImageFix" result="shape"/>
<feColorMatrix in="SourceAlpha" type="matrix" values="0 0 0 0 0 0 0 0 0 0 0 0 0 0 0 0 0 0 127 0" result="hardAlpha"/>
<feOffset dy="4"/>
<feGaussianBlur stdDeviation="2"/>
<feComposite in2="hardAlpha" operator="arithmetic" k2="-1" k3="1"/>
<feColorMatrix type="matrix" values="0 0 0 0 0.729412 0 0 0 0 0.729412 0 0 0 0 0.729412 0 0 0 1 0"/>
<feBlend mode="normal" in2="shape" result="effect1_innerShadow_591_4551"/>
</filter>
</defs>
</svg>
