<svg width="53" height="53" viewBox="0 0 53 53" fill="none" xmlns="http://www.w3.org/2000/svg">
<g filter="url(#filter0_i_267_1304)">
<path d="M26.8333 52.6667C41.1007 52.6667 52.6667 41.1007 52.6667 26.8333C52.6667 12.566 41.1007 1 26.8333 1C12.566 1 1 12.566 1 26.8333C1 41.1007 12.566 52.6667 26.8333 52.6667Z" fill="#E7E7E7"/>
</g>
<path d="M26.8333 52.6667C41.1007 52.6667 52.6667 41.1007 52.6667 26.8333C52.6667 12.566 41.1007 1 26.8333 1C12.566 1 1 12.566 1 26.8333C1 41.1007 12.566 52.6667 26.8333 52.6667Z" stroke="#707070" stroke-width="0.2" stroke-linecap="round" stroke-linejoin="round"/>
<path d="M21.6667 34.5834V19.0834" stroke="#707070" stroke-width="4" stroke-linecap="round" stroke-linejoin="round"/>
<path d="M32 34.5834V19.0834" stroke="#707070" stroke-width="4" stroke-linecap="round" stroke-linejoin="round"/>
<defs>
<filter id="filter0_i_267_1304" x="0.900024" y="0.900024" width="51.8666" height="55.8666" filterUnits="userSpaceOnUse" color-interpolation-filters="sRGB">
<feFlood flood-opacity="0" result="BackgroundImageFix"/>
<feBlend mode="normal" in="SourceGraphic" in2="BackgroundImageFix" result="shape"/>
<feColorMatrix in="SourceAlpha" type="matrix" values="0 0 0 0 0 0 0 0 0 0 0 0 0 0 0 0 0 0 127 0" result="hardAlpha"/>
<feOffset dy="4"/>
<feGaussianBlur stdDeviation="2"/>
<feComposite in2="hardAlpha" operator="arithmetic" k2="-1" k3="1"/>
<feColorMatrix type="matrix" values="0 0 0 0 0 0 0 0 0 0 0 0 0 0 0 0 0 0 0.25 0"/>
<feBlend mode="normal" in2="shape" result="effect1_innerShadow_267_1304"/>
</filter>
</defs>
</svg>
