<svg width="56" height="56" viewBox="0 0 56 56" fill="none" xmlns="http://www.w3.org/2000/svg">
<g filter="url(#filter0_d_12_967)">
<path d="M27.6667 53.5C42.3943 53.5 54.3333 41.5609 54.3333 26.8333C54.3333 12.1057 42.3943 0.166626 27.6667 0.166626C12.9391 0.166626 1 12.1057 1 26.8333C1 41.5609 12.9391 53.5 27.6667 53.5Z" fill="#E7E7E7"/>
</g>
<path fill-rule="evenodd" clip-rule="evenodd" d="M28.6666 16.1666C28.6666 15.6143 28.2189 15.1666 27.6666 15.1666C27.1143 15.1666 26.6666 15.6143 26.6666 16.1666V25.8333H17C16.4477 25.8333 16 26.281 16 26.8333C16 27.3856 16.4477 27.8333 17 27.8333H26.6666V37.5C26.6666 38.0522 27.1143 38.5 27.6666 38.5C28.2189 38.5 28.6666 38.0522 28.6666 37.5V27.8333H38.3333C38.8856 27.8333 39.3333 27.3856 39.3333 26.8333C39.3333 26.281 38.8856 25.8333 38.3333 25.8333H28.6666V16.1666Z" fill="#707070"/>
<path d="M26.6666 25.8333V26.5833C27.0808 26.5833 27.4166 26.2475 27.4166 25.8333H26.6666ZM26.6666 27.8333H27.4166C27.4166 27.4191 27.0808 27.0833 26.6666 27.0833V27.8333ZM28.6666 27.8333V27.0833C28.2524 27.0833 27.9166 27.4191 27.9166 27.8333H28.6666ZM28.6666 25.8333H27.9166C27.9166 26.2475 28.2524 26.5833 28.6666 26.5833V25.8333ZM27.6666 15.9166C27.8047 15.9166 27.9166 16.0286 27.9166 16.1666H29.4166C29.4166 15.2001 28.6331 14.4166 27.6666 14.4166V15.9166ZM27.4166 16.1666C27.4166 16.0286 27.5286 15.9166 27.6666 15.9166V14.4166C26.7001 14.4166 25.9166 15.2001 25.9166 16.1666H27.4166ZM27.4166 25.8333V16.1666H25.9166V25.8333H27.4166ZM17 26.5833H26.6666V25.0833H17V26.5833ZM16.75 26.8333C16.75 26.6952 16.8619 26.5833 17 26.5833V25.0833C16.0335 25.0833 15.25 25.8668 15.25 26.8333H16.75ZM17 27.0833C16.8619 27.0833 16.75 26.9714 16.75 26.8333H15.25C15.25 27.7998 16.0335 28.5833 17 28.5833V27.0833ZM26.6666 27.0833H17V28.5833H26.6666V27.0833ZM27.4166 37.5V27.8333H25.9166V37.5H27.4166ZM27.6666 37.75C27.5286 37.75 27.4166 37.638 27.4166 37.5H25.9166C25.9166 38.4665 26.7001 39.25 27.6666 39.25V37.75ZM27.9166 37.5C27.9166 37.638 27.8047 37.75 27.6666 37.75V39.25C28.6331 39.25 29.4166 38.4665 29.4166 37.5H27.9166ZM27.9166 27.8333V37.5H29.4166V27.8333H27.9166ZM38.3333 27.0833H28.6666V28.5833H38.3333V27.0833ZM38.5833 26.8333C38.5833 26.9714 38.4714 27.0833 38.3333 27.0833V28.5833C39.2998 28.5833 40.0833 27.7998 40.0833 26.8333H38.5833ZM38.3333 26.5833C38.4714 26.5833 38.5833 26.6952 38.5833 26.8333H40.0833C40.0833 25.8668 39.2998 25.0833 38.3333 25.0833V26.5833ZM28.6666 26.5833H38.3333V25.0833H28.6666V26.5833ZM27.9166 16.1666V25.8333H29.4166V16.1666H27.9166Z" fill="#707070"/>
<defs>
<filter id="filter0_d_12_967" x="0" y="0.166626" width="55.3333" height="55.3334" filterUnits="userSpaceOnUse" color-interpolation-filters="sRGB">
<feFlood flood-opacity="0" result="BackgroundImageFix"/>
<feColorMatrix in="SourceAlpha" type="matrix" values="0 0 0 0 0 0 0 0 0 0 0 0 0 0 0 0 0 0 127 0" result="hardAlpha"/>
<feOffset dy="1"/>
<feGaussianBlur stdDeviation="0.5"/>
<feComposite in2="hardAlpha" operator="out"/>
<feColorMatrix type="matrix" values="0 0 0 0 0 0 0 0 0 0 0 0 0 0 0 0 0 0 0.25 0"/>
<feBlend mode="normal" in2="BackgroundImageFix" result="effect1_dropShadow_12_967"/>
<feBlend mode="normal" in="SourceGraphic" in2="effect1_dropShadow_12_967" result="shape"/>
</filter>
</defs>
</svg>
