<svg width="55" height="55" viewBox="0 0 55 55" fill="none" xmlns="http://www.w3.org/2000/svg">
<g filter="url(#filter0_i_267_1276)">
<path d="M27.6667 54.3333C42.3943 54.3333 54.3333 42.3943 54.3333 27.6667C54.3333 12.9391 42.3943 1 27.6667 1C12.9391 1 1 12.9391 1 27.6667C1 42.3943 12.9391 54.3333 27.6667 54.3333Z" fill="#E7E7E7"/>
</g>
<path d="M27.6667 54.3333C42.3943 54.3333 54.3333 42.3943 54.3333 27.6667C54.3333 12.9391 42.3943 1 27.6667 1C12.9391 1 1 12.9391 1 27.6667C1 42.3943 12.9391 54.3333 27.6667 54.3333Z" stroke="#707070" stroke-width="0.2" stroke-linecap="round" stroke-linejoin="round"/>
<path fill-rule="evenodd" clip-rule="evenodd" d="M28.6666 17C28.6666 16.4477 28.2189 16 27.6666 16C27.1143 16 26.6666 16.4477 26.6666 17V26.6667H17C16.4477 26.6667 16 27.1144 16 27.6667C16 28.219 16.4477 28.6667 17 28.6667H26.6666V38.3333C26.6666 38.8856 27.1143 39.3333 27.6666 39.3333C28.2189 39.3333 28.6666 38.8856 28.6666 38.3333V28.6667H38.3333C38.8856 28.6667 39.3333 28.219 39.3333 27.6667C39.3333 27.1144 38.8856 26.6667 38.3333 26.6667H28.6666V17Z" fill="#707070"/>
<path d="M26.6666 26.6667V27.4167C27.0808 27.4167 27.4166 27.0809 27.4166 26.6667H26.6666ZM26.6666 28.6667H27.4166C27.4166 28.2525 27.0808 27.9167 26.6666 27.9167V28.6667ZM28.6666 28.6667V27.9167C28.2524 27.9167 27.9166 28.2525 27.9166 28.6667H28.6666ZM28.6666 26.6667H27.9166C27.9166 27.0809 28.2524 27.4167 28.6666 27.4167V26.6667ZM27.6666 16.75C27.8047 16.75 27.9166 16.8619 27.9166 17H29.4166C29.4166 16.0335 28.6331 15.25 27.6666 15.25V16.75ZM27.4166 17C27.4166 16.8619 27.5286 16.75 27.6666 16.75V15.25C26.7001 15.25 25.9166 16.0335 25.9166 17H27.4166ZM27.4166 26.6667V17H25.9166V26.6667H27.4166ZM17 27.4167H26.6666V25.9167H17V27.4167ZM16.75 27.6667C16.75 27.5286 16.8619 27.4167 17 27.4167V25.9167C16.0335 25.9167 15.25 26.7002 15.25 27.6667H16.75ZM17 27.9167C16.8619 27.9167 16.75 27.8047 16.75 27.6667H15.25C15.25 28.6332 16.0335 29.4167 17 29.4167V27.9167ZM26.6666 27.9167H17V29.4167H26.6666V27.9167ZM27.4166 38.3333V28.6667H25.9166V38.3333H27.4166ZM27.6666 38.5833C27.5286 38.5833 27.4166 38.4714 27.4166 38.3333H25.9166C25.9166 39.2998 26.7001 40.0833 27.6666 40.0833V38.5833ZM27.9166 38.3333C27.9166 38.4714 27.8047 38.5833 27.6666 38.5833V40.0833C28.6331 40.0833 29.4166 39.2998 29.4166 38.3333H27.9166ZM27.9166 28.6667V38.3333H29.4166V28.6667H27.9166ZM38.3333 27.9167H28.6666V29.4167H38.3333V27.9167ZM38.5833 27.6667C38.5833 27.8047 38.4714 27.9167 38.3333 27.9167V29.4167C39.2998 29.4167 40.0833 28.6332 40.0833 27.6667H38.5833ZM38.3333 27.4167C38.4714 27.4167 38.5833 27.5286 38.5833 27.6667H40.0833C40.0833 26.7002 39.2998 25.9167 38.3333 25.9167V27.4167ZM28.6666 27.4167H38.3333V25.9167H28.6666V27.4167ZM27.9166 17V26.6667H29.4166V17H27.9166Z" fill="#707070"/>
<defs>
<filter id="filter0_i_267_1276" x="0.899902" y="0.900024" width="53.5334" height="57.5333" filterUnits="userSpaceOnUse" color-interpolation-filters="sRGB">
<feFlood flood-opacity="0" result="BackgroundImageFix"/>
<feBlend mode="normal" in="SourceGraphic" in2="BackgroundImageFix" result="shape"/>
<feColorMatrix in="SourceAlpha" type="matrix" values="0 0 0 0 0 0 0 0 0 0 0 0 0 0 0 0 0 0 127 0" result="hardAlpha"/>
<feOffset dy="4"/>
<feGaussianBlur stdDeviation="2"/>
<feComposite in2="hardAlpha" operator="arithmetic" k2="-1" k3="1"/>
<feColorMatrix type="matrix" values="0 0 0 0 0 0 0 0 0 0 0 0 0 0 0 0 0 0 0.25 0"/>
<feBlend mode="normal" in2="shape" result="effect1_innerShadow_267_1276"/>
</filter>
</defs>
</svg>
