<svg width="30" height="30" viewBox="0 0 30 30" fill="none" xmlns="http://www.w3.org/2000/svg">
<path d="M14.6667 21.2208C14.4222 21.2208 14.1931 21.183 13.9792 21.1072C13.7653 21.0314 13.5667 20.9012 13.3833 20.7167L6.78333 14.1167C6.41667 13.75 6.24067 13.3222 6.25533 12.8333C6.27 12.3445 6.446 11.9167 6.78333 11.55C7.15 11.1833 7.58572 10.9927 8.0905 10.978C8.59528 10.9633 9.03039 11.1387 9.39583 11.5042L12.8333 14.9417V1.83334C12.8333 1.3139 13.0093 0.878784 13.3613 0.528007C13.7133 0.177229 14.1484 0.00122854 14.6667 6.32183e-06C15.1849 -0.0012159 15.6206 0.174784 15.9738 0.528007C16.3271 0.881229 16.5024 1.31634 16.5 1.83334V14.9417L19.9375 11.5042C20.3042 11.1375 20.7399 10.9615 21.2447 10.9762C21.7494 10.9908 22.1846 11.1821 22.55 11.55C22.8861 11.9167 23.0621 12.3445 23.078 12.8333C23.0939 13.3222 22.9179 13.75 22.55 14.1167L15.95 20.7167C15.7667 20.9 15.5681 21.0302 15.3542 21.1072C15.1403 21.1842 14.9111 21.2221 14.6667 21.2208ZM3.66667 29.3333C2.65833 29.3333 1.79544 28.9746 1.078 28.2572C0.360555 27.5397 0.00122222 26.6762 0 25.6667V22C0 21.4806 0.176 21.0455 0.528 20.6947C0.88 20.3439 1.31511 20.1679 1.83333 20.1667C2.35156 20.1655 2.78728 20.3415 3.1405 20.6947C3.49372 21.0479 3.66911 21.483 3.66667 22V25.6667H25.6667V22C25.6667 21.4806 25.8427 21.0455 26.1947 20.6947C26.5467 20.3439 26.9818 20.1679 27.5 20.1667C28.0182 20.1655 28.4539 20.3415 28.8072 20.6947C29.1604 21.0479 29.3358 21.483 29.3333 22V25.6667C29.3333 26.675 28.9746 27.5385 28.2572 28.2572C27.5397 28.9758 26.6762 29.3346 25.6667 29.3333H3.66667Z" fill="#398CCB"/>
</svg>
