<svg width="94" height="92" viewBox="0 0 94 92" fill="none" xmlns="http://www.w3.org/2000/svg">
<path d="M59.5643 31.1496C59.5069 31.2093 59.3857 31.5677 59.2901 31.943C59.0734 32.8132 58.5761 34.2209 58.2318 34.9205L57.9641 35.4665L57.658 35.1765C56.2555 33.82 54.209 34.1442 52.8383 35.9358L52.5068 36.3623L52.2327 36.2429C51.7864 36.0467 51.1616 36.1149 50.2882 36.4562C49.2809 36.8486 48.9622 37.0705 48.5605 37.6591L48.2354 38.1284L47.9931 38.0089C47.8592 37.9407 47.6552 37.8639 47.5405 37.8383C47.0878 37.7359 45.4111 38.3758 44.729 38.9218C44.5314 39.0754 44.2636 39.3996 44.0978 39.6896C43.8173 40.1674 43.8046 40.1759 43.5814 40.1162C43.1224 39.9797 42.5423 40.065 41.9175 40.3465C40.7317 40.884 40.1452 41.3874 39.8136 42.1638L39.6351 42.5818L39.0741 42.5989C38.6087 42.6159 38.4366 42.6586 38.1242 42.8463C37.5313 43.2131 36.5686 44.1175 36.1606 44.6891C35.7654 45.2436 35.6251 45.5934 35.5167 46.3186C35.4402 46.7793 35.4402 46.7878 35.1916 46.8305C34.7262 46.9158 34.3245 47.2571 33.7189 48.059C32.8072 49.2705 32.4821 50.0639 32.4821 51.045V51.4801L32.1633 51.6849C30.901 52.4869 29.8746 55.234 30.2762 56.7355C30.3464 57 30.34 57.0683 30.2635 57.2048C30.0595 57.5631 29.4156 59.4656 29.1988 60.3529C29.0713 60.8648 28.9374 61.5899 28.8928 61.9568C28.7653 63.1512 29.0203 64.047 29.6132 64.4736C29.9957 64.7466 30.5376 64.7039 31.0668 64.3541C31.5959 64.0129 32.4948 62.7588 33.33 61.1975C33.993 59.9519 34.0249 59.9007 34.2735 59.8581C34.7581 59.7727 35.2235 59.3803 35.8674 58.5271C36.4985 57.6825 36.7344 57.1792 36.7981 56.5649C36.83 56.2492 36.8491 56.2236 37.0978 56.1725C38.1242 55.9506 39.1506 54.5515 39.3929 53.0329C39.4311 52.8281 39.463 52.8025 39.7053 52.8025C40.6743 52.8025 41.892 51.7617 42.3319 50.5417L42.5104 50.0639L42.7718 50.1322C43.2053 50.2431 43.8364 50.1833 44.2445 49.9957C45.1051 49.5861 45.9148 48.7501 46.2144 47.9566L46.3802 47.5215L46.6161 47.6154C46.954 47.7433 47.4767 47.658 48.0633 47.385L48.5733 47.1461L48.6944 47.3509C49.0769 47.9993 49.5869 48.7159 50.0651 49.2705C50.4922 49.7738 50.6452 49.9018 50.8046 49.9018C51.0214 49.9018 51.1871 49.7738 51.2445 49.552C51.2828 49.3985 51.1298 48.878 51.0405 48.878C50.9576 48.878 49.893 47.5215 49.5614 46.9926L49.3001 46.5745L49.5933 46.2247C49.7527 46.037 49.9758 45.6702 50.0906 45.4143C50.2882 44.9706 50.3137 44.9535 50.4922 45.0133C50.5942 45.0559 50.9449 45.0815 51.2636 45.0815H51.8438L52.0606 45.6361C52.4686 46.7196 53.75 48.1102 54.362 48.1273C54.719 48.1443 54.9358 47.5386 54.6808 47.2315C54.617 47.1547 54.3875 46.967 54.1644 46.8219C53.6607 46.4892 53.087 45.7811 52.8575 45.2095C52.7618 44.9706 52.6917 44.7659 52.7045 44.7488C52.7108 44.7403 52.8702 44.6038 53.0487 44.4587C53.3802 44.1772 53.9094 43.4861 54.1198 43.0596L54.2281 42.8377L54.5023 43.0425C55.5096 43.7933 56.7018 43.8615 57.658 43.2046L57.9768 42.9913L58.0661 43.1705C58.1171 43.2643 58.3083 43.5544 58.4932 43.8103C58.8502 44.3052 59.0415 44.3905 59.3092 44.1345C59.5451 43.9127 59.4941 43.58 59.1307 42.9998C58.9586 42.7183 58.7865 42.4709 58.7482 42.4368C58.7036 42.4026 58.7673 42.232 58.914 41.9846C59.0479 41.7628 59.1626 41.5666 59.1754 41.5495C59.22 41.4727 59.8894 42.1638 60.0806 42.4794C60.2464 42.7524 60.3229 42.8207 60.495 42.8207C60.8393 42.8207 61.0433 42.377 60.8903 41.9761C60.7628 41.6604 60.0743 40.8072 59.7683 40.6025C59.526 40.4404 59.526 40.4319 59.5898 40.1162C59.6216 39.9456 59.6408 39.5787 59.628 39.3057L59.6025 38.8109L59.9531 38.6317C60.6608 38.2819 61.343 38.1284 62.2992 38.1284C63.1854 38.1284 63.2109 38.1198 63.3065 37.9236C63.434 37.6762 63.3767 37.3179 63.1918 37.1472C63.0898 37.0534 62.8539 37.0193 62.2355 37.0193C61.3238 37.0193 60.444 37.2155 59.7173 37.5823C59.4112 37.7359 59.2837 37.7615 59.2646 37.6933C59.2519 37.6335 59.0925 37.3008 58.914 36.9425L58.5825 36.2941L58.9203 35.6116C59.475 34.5025 60.2783 32.1222 60.2783 31.5932C60.2783 31.1923 59.8065 30.9022 59.5643 31.1496ZM56.8293 35.8419C57.7983 36.4733 58.7418 38.2819 58.7482 39.5105C58.7546 41.2679 57.1289 42.8719 55.7327 42.488C54.26 42.0699 53.3229 40.4063 53.1699 37.9407C53.1252 37.2326 53.1316 37.1899 53.291 36.9084C53.5014 36.5415 54.0751 36.004 54.5342 35.7481C55.2418 35.3471 56.1344 35.3812 56.8293 35.8419ZM52.0542 37.3861C52.1753 37.4714 52.2263 37.5909 52.2646 37.9151C52.5004 39.8603 52.6917 40.6537 53.1061 41.3703C53.5715 42.1723 53.5524 42.0955 53.393 42.4282C53.1826 42.8889 52.6407 43.5032 52.2008 43.7762C51.8629 43.9895 51.7163 44.0321 51.2955 44.0321C50.4476 44.0407 50.3902 43.9639 49.8738 42.3856C49.6443 41.6604 49.3319 40.6025 49.1853 40.0224C48.8857 38.8621 48.892 38.717 49.2363 38.2734C49.7463 37.6165 51.5505 37.0449 52.0542 37.3861ZM47.8465 39.1692L48.127 39.3654L48.4968 40.7305C48.7008 41.4727 49.0132 42.5391 49.1917 43.0937C49.5614 44.2369 49.5678 44.3819 49.2427 45.0047C48.6307 46.2077 46.9922 46.9158 46.3866 46.2503C46.2654 46.1224 44.7991 42.0528 44.5951 41.2679C44.5122 40.9693 44.5186 40.9267 44.6971 40.5428C44.933 40.0309 45.2518 39.7408 45.9339 39.4081C46.9221 38.9218 47.3939 38.8621 47.8465 39.1692ZM43.5304 41.2935C43.6388 41.3618 43.7727 41.6604 44.0213 42.4197C44.2126 42.9913 44.6334 44.2028 44.9585 45.1156C45.2836 46.0285 45.5514 46.8731 45.5514 47.0011C45.5514 47.9225 44.0213 49.2705 43.1607 49.0999C42.7208 49.006 42.4976 48.7415 42.1215 47.8628C41.5477 46.4892 40.3874 43.4435 40.3874 43.2984C40.3874 43.051 40.6297 42.5135 40.8401 42.2747C41.5158 41.5154 43.0013 40.9693 43.5304 41.2935ZM39.5778 43.9127C39.6415 43.981 39.8965 44.6038 40.1515 45.2863C40.6934 46.7622 41.2863 48.2552 41.5477 48.8183C41.7071 49.151 41.7326 49.2705 41.6944 49.5435C41.5987 50.2345 41.1078 50.9853 40.4257 51.4631C40.0687 51.7105 39.4375 51.719 39.2399 51.4801C39.157 51.3863 38.6916 50.6952 38.1943 49.953C36.2499 47.0096 36.2754 47.0608 36.3519 46.5575C36.4411 45.9091 36.83 45.2692 37.5249 44.6379C37.8947 44.2966 38.5705 43.8359 38.8255 43.7506C39.0805 43.6653 39.4375 43.7421 39.5778 43.9127ZM35.8801 48.1358C35.9566 48.2382 36.3072 48.7842 36.6579 49.3473C37.0085 49.9018 37.5759 50.7891 37.9266 51.301L38.5513 52.248L38.5258 52.6745C38.4876 53.2462 38.2708 53.8092 37.8756 54.3467C37.4994 54.8586 37.1488 55.0975 36.779 55.106C36.4666 55.106 36.4348 55.0804 34.7134 53.2035C33.4256 51.7958 33.3427 51.6422 33.3874 50.8744C33.4192 50.3284 33.7061 49.6715 34.2098 48.9633C34.9047 47.9908 35.5422 47.6666 35.8801 48.1358ZM34.3182 54.1761C35.1151 55.0292 35.8036 55.7715 35.8546 55.8312C35.8992 55.8909 35.9375 56.1042 35.9375 56.309C35.9247 57.256 34.6561 58.7746 33.8655 58.7746C32.9985 58.766 31.4557 57.5375 31.1369 56.599C31.0731 56.4113 31.0158 56.1213 31.0158 55.9506C31.0094 54.705 32.0996 52.666 32.7881 52.6319C32.8263 52.6319 33.5149 53.3315 34.3182 54.1761ZM31.1497 58.3139C31.3983 58.6722 32.2016 59.3462 32.6096 59.5509C32.82 59.6533 32.9921 59.7471 32.9921 59.7642C32.9921 59.8325 32.3418 61.0354 31.9211 61.7435C31.2325 62.8953 30.6524 63.4669 30.1742 63.4669C29.8236 63.4669 29.7088 63.1853 29.7216 62.4004C29.728 61.9568 29.7917 61.5473 29.9511 60.8904C30.1806 59.969 30.8436 58.092 30.9393 58.092C30.9711 58.092 31.0604 58.1944 31.1497 58.3139Z" fill="#707070"/>
<path d="M61.4067 46.7625C61.3493 46.8222 61.2346 47.2318 61.1453 47.6839C60.9541 48.6565 60.6353 49.7059 60.2783 50.5079C60.1316 50.832 60.0105 51.0965 59.9978 51.0965C59.985 51.0965 59.8129 51.0027 59.6216 50.8832C58.608 50.2604 57.4987 50.3031 56.4404 51.0197C56.0387 51.2927 55.4203 52.0179 55.1526 52.5383L54.9741 52.8711L54.5023 52.8284C54.1006 52.7858 53.954 52.8114 53.4886 53.0161C52.9531 53.2465 52.1817 53.7839 51.7545 54.219C51.6334 54.347 51.423 54.6712 51.2891 54.9528L51.0405 55.4561L50.4476 55.4732C49.893 55.4902 49.8165 55.5158 49.2873 55.8571C48.1908 56.5652 47.4895 57.316 47.2026 58.1265L47.0623 58.5019H46.6097C46.055 58.5019 45.5131 58.7493 44.882 59.2953C43.8811 60.1655 43.5241 60.6518 43.32 61.4282L43.2053 61.8889L42.7335 61.94C42.2235 61.9998 41.8601 62.2045 41.1843 62.8103C40.2089 63.6805 39.7563 64.3715 39.5523 65.2588L39.4184 65.8475L39.1251 65.9072C38.6788 65.9925 38.1433 66.3082 37.5568 66.8286C36.7471 67.5538 36.32 68.2363 36.116 69.1491C36.0522 69.4307 35.9821 69.5331 35.7462 69.7037C35.3063 70.0108 33.9165 71.265 33.432 71.7939C32.9921 72.2717 32.5012 73.0907 32.3737 73.5599C32.2717 73.9353 32.2717 74.6775 32.3801 75.0103C32.4948 75.3686 32.6988 75.616 33.0877 75.8549C33.5276 76.1279 34.5668 76.1279 35.3382 75.8464C36.0841 75.5819 36.9575 75.1468 37.5632 74.7373L38.0859 74.3875L38.4557 74.6264C38.953 74.9335 39.6925 74.942 40.3555 74.6605C41.5158 74.1486 42.4721 73.321 42.7144 72.6044L42.8291 72.2546H43.3264C43.9193 72.2546 44.3656 72.0584 44.9776 71.5294C45.7873 70.8384 46.4057 69.9426 46.6352 69.1236L46.7372 68.7482L47.311 68.7311C47.7764 68.7055 47.9485 68.6629 48.2418 68.4666C49.0705 67.9377 49.8101 66.9907 50.1671 66.0096L50.3775 65.4209L50.8492 65.4038C51.2509 65.3868 51.3911 65.3356 51.8055 65.0626L52.2901 64.7384L52.6662 65.2588C53.036 65.7707 53.7882 66.5044 54.3301 66.8712C54.7509 67.1528 55.0761 67.1016 55.1844 66.7433C55.2801 66.402 55.1271 66.1205 54.7063 65.8389C54.4895 65.6939 54.1899 65.4635 54.0305 65.3185C53.7245 65.037 53.0105 64.1668 53.0105 64.0644C53.0105 64.0388 53.138 63.8255 53.2974 63.5951C53.4567 63.3733 53.6671 62.9553 53.7691 62.6737L53.954 62.1619L54.3939 62.1789C54.6362 62.1875 54.9103 62.1619 54.9996 62.1107C55.1653 62.0254 55.1908 62.0595 55.5415 62.6311C55.9941 63.3819 56.4531 63.8084 57.1416 64.1497C57.811 64.4739 58.0597 64.4824 58.2318 64.1838C58.3083 64.0558 58.3657 63.9023 58.3657 63.8426C58.3657 63.6122 58.0661 63.3221 57.6325 63.143C57.0396 62.9041 56.536 62.4861 56.281 62.0339C56.1662 61.8291 56.0706 61.6329 56.0706 61.6073C56.0706 61.5732 56.2172 61.4196 56.3894 61.2661C56.7464 60.9589 57.097 60.3702 57.2564 59.8157C57.352 59.5 57.3839 59.4574 57.4987 59.5C58.2509 59.8328 58.5506 59.8925 59.1626 59.8584C59.8639 59.8157 60.342 59.6195 60.8712 59.1247C61.1198 58.8943 61.1708 58.8772 61.2346 58.9881C61.2792 59.0649 61.4896 59.2953 61.7 59.5086C62.1207 59.9266 62.312 59.9522 62.5288 59.6109C62.72 59.3038 62.6626 59.1076 62.2164 58.5616L61.7956 58.0497L61.9677 57.6402C62.0634 57.4184 62.1781 57.2392 62.2291 57.2392C62.3694 57.2392 62.771 57.5293 63.1089 57.8705C63.2683 58.0412 63.4532 58.1777 63.5169 58.1777C63.6954 58.1777 63.8931 57.9473 63.9313 57.6914C63.9568 57.4866 63.9186 57.3928 63.6572 57.06C63.4914 56.8382 63.1408 56.5225 62.8794 56.3434L62.4012 56.0277L62.363 55.4646C62.3375 55.149 62.3184 54.8163 62.3056 54.7309C62.261 54.3556 64.0014 53.4512 64.945 53.3488C65.2382 53.3147 65.5506 53.2379 65.6399 53.1782C65.9395 52.9734 65.9331 52.4189 65.6271 52.1971C65.2574 51.9326 63.026 52.6748 62.1462 53.3659L61.8785 53.5707L61.7382 53.2976C61.6553 53.1441 61.4003 52.7431 61.1644 52.4189L60.7373 51.8217L61.2027 50.5761C61.6298 49.4158 61.8338 48.6395 62.0187 47.4706C62.0825 47.0611 62.0761 46.9929 61.9677 46.8308C61.8402 46.6346 61.5661 46.609 61.4067 46.7625ZM59.016 51.8046C59.8575 52.2141 60.8776 53.4 61.2473 54.3982C61.4386 54.9186 61.4577 55.0551 61.4577 55.7035C61.4577 56.369 61.4386 56.4714 61.2409 56.9577C60.9796 57.6146 60.5205 58.2033 60.036 58.5019C59.7109 58.7066 59.6025 58.7322 58.9713 58.7237C58.3976 58.7237 58.2063 58.6895 57.9258 58.536C56.8803 57.9473 56.2045 56.7017 55.8092 54.62C55.6052 53.5536 55.6052 53.5536 55.9558 52.9564C56.6316 51.7961 57.9704 51.2927 59.016 51.8046ZM54.6234 54.0058C54.7509 54.0484 54.8593 54.1423 54.8593 54.202C54.8593 54.2702 54.9294 54.6627 55.0187 55.0722C55.2609 56.2069 55.7965 57.606 56.23 58.2374L56.587 58.7749L56.485 59.2441C56.3511 59.8754 56.0387 60.3276 55.4649 60.703C54.9422 61.0442 54.3811 61.1637 54.0178 61.0016C53.8138 60.9163 53.7245 60.7542 53.24 59.6707C52.4303 57.8705 51.7992 56.3263 51.7992 56.1728C51.7992 55.9168 52.0478 55.3793 52.3092 55.0807C52.7618 54.5688 53.801 53.946 54.2536 53.9204C54.3238 53.9119 54.4895 53.9546 54.6234 54.0058ZM50.8301 56.6932C51.0596 56.8126 51.1234 56.9321 51.6398 58.2033C51.9458 58.9626 52.3984 60.0205 52.6343 60.5579C52.8766 61.0954 53.0742 61.6158 53.0742 61.7097C53.0678 62.3069 52.3857 63.3819 51.7035 63.8682C51.1616 64.2521 50.7727 64.3715 50.454 64.2435C50.2181 64.1497 50.1416 64.0132 49.0769 61.8633C48.4585 60.6091 47.923 59.483 47.8911 59.3635C47.7955 59.0479 47.9867 58.4165 48.2928 58.0156C48.7837 57.3842 49.9695 56.5652 50.4094 56.5567C50.505 56.5567 50.6962 56.6164 50.8301 56.6932ZM46.9986 59.756C47.0687 59.8242 47.209 60.0631 47.311 60.2849C47.4066 60.5153 47.9421 61.6158 48.4968 62.742C49.1215 64.0217 49.5041 64.8663 49.5041 65.0028C49.5041 65.3953 49.1917 66.1205 48.8155 66.6153C48.3693 67.1954 47.8274 67.5794 47.3683 67.6305C46.7946 67.6903 46.6288 67.5623 46.1443 66.6835C45.3729 65.2759 43.9576 62.4178 43.9576 62.2557C43.9576 61.9656 44.1998 61.4452 44.4995 61.0954C45.5004 59.9181 46.5651 59.3465 46.9986 59.756ZM43.4348 63.4672C43.6133 63.834 44.5441 65.6 45.3793 67.1613C45.9275 68.1851 45.9594 68.3728 45.7363 68.9785C45.5641 69.4648 44.7099 70.5227 44.2508 70.8384C43.9958 71.009 43.7663 71.0943 43.4603 71.1199C42.7144 71.1796 42.7335 71.2138 41.0504 67.878L40.2408 66.2826L40.3173 65.8219C40.4129 65.2332 40.6552 64.7981 41.1971 64.1924C41.8282 63.4928 42.4148 63.1259 42.8802 63.1259C43.2499 63.1259 43.2627 63.1344 43.4348 63.4672ZM40.024 67.9206C40.279 68.4069 40.7189 69.243 40.9931 69.7805C41.2672 70.318 41.6178 70.9749 41.7709 71.2394C41.994 71.6318 42.045 71.7683 42.0067 71.9475C41.9175 72.4508 41.0249 73.2016 40.1197 73.5343C39.157 73.8927 38.5768 73.6879 37.8628 72.7324C36.9894 71.5636 36.6706 70.1985 37.0276 69.1577C37.3337 68.2619 38.6597 67.076 39.3801 67.0589C39.5268 67.0504 39.6224 67.1784 40.024 67.9206ZM36.116 71.0602C36.116 71.3417 36.677 72.7153 36.983 73.176C37.1424 73.4234 37.2635 73.6452 37.2444 73.6708C37.1488 73.7988 35.9566 74.4301 35.453 74.6093C34.656 74.8994 33.6806 74.9676 33.3746 74.7543C33.177 74.6178 33.1515 74.5666 33.1579 74.2766C33.1706 73.7561 33.5595 73.0822 34.2672 72.3655C34.9493 71.683 35.9949 70.8043 36.0714 70.864C36.0969 70.881 36.116 70.9664 36.116 71.0602Z" fill="#707070"/>
<path d="M41.2239 14.6905L8.04973 68.8939C7.36575 70.0532 7.00385 71.3675 7.00002 72.7062C6.99619 74.0449 7.35056 75.3612 8.0279 76.5242C8.70523 77.6872 9.6819 78.6564 10.8607 79.3353C12.0396 80.0142 13.3795 80.3792 14.7472 80.3939H81.0956C82.4633 80.3792 83.8032 80.0142 84.982 79.3353C86.1609 78.6564 87.1376 77.6872 87.8149 76.5242C88.4922 75.3612 88.8466 74.0449 88.8428 72.7062C88.8389 71.3675 88.477 70.0532 87.7931 68.8939L54.6189 14.6905C53.9207 13.5639 52.9376 12.6325 51.7644 11.9861C50.5913 11.3396 49.2677 11 47.9214 11C46.5751 11 45.2515 11.3396 44.0784 11.9861C42.9052 12.6325 41.9221 13.5639 41.2239 14.6905Z" fill="#FC4747" stroke="#707070" stroke-width="7" stroke-linecap="round" stroke-linejoin="round"/>
<path d="M41.2239 14.6905L8.04973 68.8939C7.36575 70.0532 7.00385 71.3675 7.00002 72.7062C6.99619 74.0449 7.35056 75.3612 8.0279 76.5242C8.70523 77.6872 9.6819 78.6564 10.8607 79.3353C12.0396 80.0142 13.3795 80.3792 14.7472 80.3939H81.0956C82.4633 80.3792 83.8032 80.0142 84.982 79.3353C86.1609 78.6564 87.1376 77.6872 87.8149 76.5242C88.4922 75.3612 88.8466 74.0449 88.8428 72.7062C88.8389 71.3675 88.477 70.0532 87.7931 68.8939L54.6189 14.6905C53.9207 13.5639 52.9376 12.6325 51.7644 11.9861C50.5913 11.3396 49.2677 11 47.9214 11C46.5751 11 45.2515 11.3396 44.0784 11.9861C42.9052 12.6325 41.9221 13.5639 41.2239 14.6905Z" fill="#FC4747" stroke="#707070" stroke-width="7" stroke-linecap="round" stroke-linejoin="round"/>
<path d="M59.5643 31.1496C59.5069 31.2093 59.3857 31.5677 59.2901 31.943C59.0734 32.8132 58.5761 34.2209 58.2318 34.9205L57.9641 35.4665L57.658 35.1765C56.2555 33.82 54.209 34.1442 52.8383 35.9358L52.5068 36.3623L52.2327 36.2429C51.7864 36.0467 51.1616 36.1149 50.2882 36.4562C49.2809 36.8486 48.9622 37.0705 48.5605 37.6591L48.2354 38.1284L47.9931 38.0089C47.8592 37.9407 47.6552 37.8639 47.5405 37.8383C47.0878 37.7359 45.4111 38.3758 44.729 38.9218C44.5314 39.0754 44.2636 39.3996 44.0978 39.6896C43.8173 40.1674 43.8046 40.1759 43.5814 40.1162C43.1224 39.9797 42.5423 40.065 41.9175 40.3465C40.7317 40.884 40.1452 41.3874 39.8136 42.1638L39.6351 42.5818L39.0741 42.5989C38.6087 42.6159 38.4366 42.6586 38.1242 42.8463C37.5313 43.2131 36.5686 44.1175 36.1606 44.6891C35.7654 45.2436 35.6251 45.5934 35.5167 46.3186C35.4402 46.7793 35.4402 46.7878 35.1916 46.8305C34.7262 46.9158 34.3245 47.2571 33.7189 48.059C32.8072 49.2705 32.4821 50.0639 32.4821 51.045V51.4801L32.1633 51.6849C30.901 52.4869 29.8746 55.234 30.2762 56.7355C30.3464 57 30.34 57.0683 30.2635 57.2048C30.0595 57.5631 29.4156 59.4656 29.1988 60.3529C29.0713 60.8648 28.9374 61.5899 28.8928 61.9568C28.7653 63.1512 29.0203 64.047 29.6132 64.4736C29.9957 64.7466 30.5376 64.7039 31.0668 64.3541C31.5959 64.0129 32.4948 62.7588 33.33 61.1975C33.993 59.9519 34.0249 59.9007 34.2735 59.8581C34.7581 59.7727 35.2235 59.3803 35.8674 58.5271C36.4985 57.6825 36.7344 57.1792 36.7981 56.5649C36.83 56.2492 36.8491 56.2236 37.0978 56.1725C38.1242 55.9506 39.1506 54.5515 39.3929 53.0329C39.4311 52.8281 39.463 52.8025 39.7053 52.8025C40.6743 52.8025 41.892 51.7617 42.3319 50.5417L42.5104 50.0639L42.7718 50.1322C43.2053 50.2431 43.8364 50.1833 44.2445 49.9957C45.1051 49.5861 45.9148 48.7501 46.2144 47.9566L46.3802 47.5215L46.6161 47.6154C46.954 47.7433 47.4767 47.658 48.0633 47.385L48.5733 47.1461L48.6944 47.3509C49.0769 47.9993 49.5869 48.7159 50.0651 49.2705C50.4922 49.7738 50.6452 49.9018 50.8046 49.9018C51.0214 49.9018 51.1871 49.7738 51.2445 49.552C51.2828 49.3985 51.1298 48.878 51.0405 48.878C50.9576 48.878 49.893 47.5215 49.5614 46.9926L49.3001 46.5745L49.5933 46.2247C49.7527 46.037 49.9758 45.6702 50.0906 45.4143C50.2882 44.9706 50.3137 44.9535 50.4922 45.0133C50.5942 45.0559 50.9449 45.0815 51.2636 45.0815H51.8438L52.0606 45.6361C52.4686 46.7196 53.75 48.1102 54.362 48.1273C54.719 48.1443 54.9358 47.5386 54.6808 47.2315C54.617 47.1547 54.3875 46.967 54.1644 46.8219C53.6607 46.4892 53.087 45.7811 52.8575 45.2095C52.7618 44.9706 52.6917 44.7659 52.7045 44.7488C52.7108 44.7403 52.8702 44.6038 53.0487 44.4587C53.3802 44.1772 53.9094 43.4861 54.1198 43.0596L54.2281 42.8377L54.5023 43.0425C55.5096 43.7933 56.7018 43.8615 57.658 43.2046L57.9768 42.9913L58.0661 43.1705C58.1171 43.2643 58.3083 43.5544 58.4932 43.8103C58.8502 44.3052 59.0415 44.3905 59.3092 44.1345C59.5451 43.9127 59.4941 43.58 59.1307 42.9998C58.9586 42.7183 58.7865 42.4709 58.7482 42.4368C58.7036 42.4026 58.7673 42.232 58.914 41.9846C59.0479 41.7628 59.1626 41.5666 59.1754 41.5495C59.22 41.4727 59.8894 42.1638 60.0806 42.4794C60.2464 42.7524 60.3229 42.8207 60.495 42.8207C60.8393 42.8207 61.0433 42.377 60.8903 41.9761C60.7628 41.6604 60.0743 40.8072 59.7683 40.6025C59.526 40.4404 59.526 40.4319 59.5898 40.1162C59.6216 39.9456 59.6408 39.5787 59.628 39.3057L59.6025 38.8109L59.9531 38.6317C60.6608 38.2819 61.343 38.1284 62.2992 38.1284C63.1854 38.1284 63.2109 38.1198 63.3065 37.9236C63.434 37.6762 63.3767 37.3179 63.1918 37.1472C63.0898 37.0534 62.8539 37.0193 62.2355 37.0193C61.3238 37.0193 60.444 37.2155 59.7173 37.5823C59.4112 37.7359 59.2837 37.7615 59.2646 37.6933C59.2519 37.6335 59.0925 37.3008 58.914 36.9425L58.5825 36.2941L58.9203 35.6116C59.475 34.5025 60.2783 32.1222 60.2783 31.5932C60.2783 31.1923 59.8065 30.9022 59.5643 31.1496ZM56.8293 35.8419C57.7983 36.4733 58.7418 38.2819 58.7482 39.5105C58.7546 41.2679 57.1289 42.8719 55.7327 42.488C54.26 42.0699 53.3229 40.4063 53.1699 37.9407C53.1252 37.2326 53.1316 37.1899 53.291 36.9084C53.5014 36.5415 54.0751 36.004 54.5342 35.7481C55.2418 35.3471 56.1344 35.3812 56.8293 35.8419ZM52.0542 37.3861C52.1753 37.4714 52.2263 37.5909 52.2646 37.9151C52.5004 39.8603 52.6917 40.6537 53.1061 41.3703C53.5715 42.1723 53.5524 42.0955 53.393 42.4282C53.1826 42.8889 52.6407 43.5032 52.2008 43.7762C51.8629 43.9895 51.7163 44.0321 51.2955 44.0321C50.4476 44.0407 50.3902 43.9639 49.8738 42.3856C49.6443 41.6604 49.3319 40.6025 49.1853 40.0224C48.8857 38.8621 48.892 38.717 49.2363 38.2734C49.7463 37.6165 51.5505 37.0449 52.0542 37.3861ZM47.8465 39.1692L48.127 39.3654L48.4968 40.7305C48.7008 41.4727 49.0132 42.5391 49.1917 43.0937C49.5614 44.2369 49.5678 44.3819 49.2427 45.0047C48.6307 46.2077 46.9922 46.9158 46.3866 46.2503C46.2654 46.1224 44.7991 42.0528 44.5951 41.2679C44.5122 40.9693 44.5186 40.9267 44.6971 40.5428C44.933 40.0309 45.2518 39.7408 45.9339 39.4081C46.9221 38.9218 47.3939 38.8621 47.8465 39.1692ZM43.5304 41.2935C43.6388 41.3618 43.7727 41.6604 44.0213 42.4197C44.2126 42.9913 44.6334 44.2028 44.9585 45.1156C45.2836 46.0285 45.5514 46.8731 45.5514 47.0011C45.5514 47.9225 44.0213 49.2705 43.1607 49.0999C42.7208 49.006 42.4976 48.7415 42.1215 47.8628C41.5477 46.4892 40.3874 43.4435 40.3874 43.2984C40.3874 43.051 40.6297 42.5135 40.8401 42.2747C41.5158 41.5154 43.0013 40.9693 43.5304 41.2935ZM39.5778 43.9127C39.6415 43.981 39.8965 44.6038 40.1515 45.2863C40.6934 46.7622 41.2863 48.2552 41.5477 48.8183C41.7071 49.151 41.7326 49.2705 41.6944 49.5435C41.5987 50.2345 41.1078 50.9853 40.4257 51.4631C40.0687 51.7105 39.4375 51.719 39.2399 51.4801C39.157 51.3863 38.6916 50.6952 38.1943 49.953C36.2499 47.0096 36.2754 47.0608 36.3519 46.5575C36.4411 45.9091 36.83 45.2692 37.5249 44.6379C37.8947 44.2966 38.5705 43.8359 38.8255 43.7506C39.0805 43.6653 39.4375 43.7421 39.5778 43.9127ZM35.8801 48.1358C35.9566 48.2382 36.3072 48.7842 36.6579 49.3473C37.0085 49.9018 37.5759 50.7891 37.9266 51.301L38.5513 52.248L38.5258 52.6745C38.4876 53.2462 38.2708 53.8092 37.8756 54.3467C37.4994 54.8586 37.1488 55.0975 36.779 55.106C36.4666 55.106 36.4348 55.0804 34.7134 53.2035C33.4256 51.7958 33.3427 51.6422 33.3874 50.8744C33.4192 50.3284 33.7061 49.6715 34.2098 48.9633C34.9047 47.9908 35.5422 47.6666 35.8801 48.1358ZM34.3182 54.1761C35.1151 55.0292 35.8036 55.7715 35.8546 55.8312C35.8992 55.8909 35.9375 56.1042 35.9375 56.309C35.9247 57.256 34.6561 58.7746 33.8655 58.7746C32.9985 58.766 31.4557 57.5375 31.1369 56.599C31.0731 56.4113 31.0158 56.1213 31.0158 55.9506C31.0094 54.705 32.0996 52.666 32.7881 52.6319C32.8263 52.6319 33.5149 53.3315 34.3182 54.1761ZM31.1497 58.3139C31.3983 58.6722 32.2016 59.3462 32.6096 59.5509C32.82 59.6533 32.9921 59.7471 32.9921 59.7642C32.9921 59.8325 32.3418 61.0354 31.9211 61.7435C31.2325 62.8953 30.6524 63.4669 30.1742 63.4669C29.8236 63.4669 29.7088 63.1853 29.7216 62.4004C29.728 61.9568 29.7917 61.5473 29.9511 60.8904C30.1806 59.969 30.8436 58.092 30.9393 58.092C30.9711 58.092 31.0604 58.1944 31.1497 58.3139Z" fill="#707070"/>
<path d="M61.4067 46.7625C61.3493 46.8222 61.2346 47.2318 61.1453 47.6839C60.9541 48.6565 60.6353 49.7059 60.2783 50.5079C60.1316 50.832 60.0105 51.0965 59.9978 51.0965C59.985 51.0965 59.8129 51.0027 59.6216 50.8832C58.608 50.2604 57.4987 50.3031 56.4404 51.0197C56.0387 51.2927 55.4203 52.0179 55.1526 52.5383L54.9741 52.8711L54.5023 52.8284C54.1006 52.7858 53.954 52.8114 53.4886 53.0161C52.9531 53.2465 52.1817 53.7839 51.7545 54.219C51.6334 54.347 51.423 54.6712 51.2891 54.9528L51.0405 55.4561L50.4476 55.4732C49.893 55.4902 49.8165 55.5158 49.2873 55.8571C48.1908 56.5652 47.4895 57.316 47.2026 58.1265L47.0623 58.5019H46.6097C46.055 58.5019 45.5131 58.7493 44.882 59.2953C43.8811 60.1655 43.5241 60.6518 43.32 61.4282L43.2053 61.8889L42.7335 61.94C42.2235 61.9998 41.8601 62.2045 41.1843 62.8103C40.2089 63.6805 39.7563 64.3715 39.5523 65.2588L39.4184 65.8475L39.1251 65.9072C38.6788 65.9925 38.1433 66.3082 37.5568 66.8286C36.7471 67.5538 36.32 68.2363 36.116 69.1491C36.0522 69.4307 35.9821 69.5331 35.7462 69.7037C35.3063 70.0108 33.9165 71.265 33.432 71.7939C32.9921 72.2717 32.5012 73.0907 32.3737 73.5599C32.2717 73.9353 32.2717 74.6775 32.3801 75.0103C32.4948 75.3686 32.6988 75.616 33.0877 75.8549C33.5276 76.1279 34.5668 76.1279 35.3382 75.8464C36.0841 75.5819 36.9575 75.1468 37.5632 74.7373L38.0859 74.3875L38.4557 74.6264C38.953 74.9335 39.6925 74.942 40.3555 74.6605C41.5158 74.1486 42.4721 73.321 42.7144 72.6044L42.8291 72.2546H43.3264C43.9193 72.2546 44.3656 72.0584 44.9776 71.5294C45.7873 70.8384 46.4057 69.9426 46.6352 69.1236L46.7372 68.7482L47.311 68.7311C47.7764 68.7055 47.9485 68.6629 48.2418 68.4666C49.0705 67.9377 49.8101 66.9907 50.1671 66.0096L50.3775 65.4209L50.8492 65.4038C51.2509 65.3868 51.3911 65.3356 51.8055 65.0626L52.2901 64.7384L52.6662 65.2588C53.036 65.7707 53.7882 66.5044 54.3301 66.8712C54.7509 67.1528 55.0761 67.1016 55.1844 66.7433C55.2801 66.402 55.1271 66.1205 54.7063 65.8389C54.4895 65.6939 54.1899 65.4635 54.0305 65.3185C53.7245 65.037 53.0105 64.1668 53.0105 64.0644C53.0105 64.0388 53.138 63.8255 53.2974 63.5951C53.4567 63.3733 53.6671 62.9553 53.7691 62.6737L53.954 62.1619L54.3939 62.1789C54.6362 62.1875 54.9103 62.1619 54.9996 62.1107C55.1653 62.0254 55.1908 62.0595 55.5415 62.6311C55.9941 63.3819 56.4531 63.8084 57.1416 64.1497C57.811 64.4739 58.0597 64.4824 58.2318 64.1838C58.3083 64.0558 58.3657 63.9023 58.3657 63.8426C58.3657 63.6122 58.0661 63.3221 57.6325 63.143C57.0396 62.9041 56.536 62.4861 56.281 62.0339C56.1662 61.8291 56.0706 61.6329 56.0706 61.6073C56.0706 61.5732 56.2172 61.4196 56.3894 61.2661C56.7464 60.9589 57.097 60.3702 57.2564 59.8157C57.352 59.5 57.3839 59.4574 57.4987 59.5C58.2509 59.8328 58.5506 59.8925 59.1626 59.8584C59.8639 59.8157 60.342 59.6195 60.8712 59.1247C61.1198 58.8943 61.1708 58.8772 61.2346 58.9881C61.2792 59.0649 61.4896 59.2953 61.7 59.5086C62.1207 59.9266 62.312 59.9522 62.5288 59.6109C62.72 59.3038 62.6626 59.1076 62.2164 58.5616L61.7956 58.0497L61.9677 57.6402C62.0634 57.4184 62.1781 57.2392 62.2291 57.2392C62.3694 57.2392 62.771 57.5293 63.1089 57.8705C63.2683 58.0412 63.4532 58.1777 63.5169 58.1777C63.6954 58.1777 63.8931 57.9473 63.9313 57.6914C63.9568 57.4866 63.9186 57.3928 63.6572 57.06C63.4914 56.8382 63.1408 56.5225 62.8794 56.3434L62.4012 56.0277L62.363 55.4646C62.3375 55.149 62.3184 54.8163 62.3056 54.7309C62.261 54.3556 64.0014 53.4512 64.945 53.3488C65.2382 53.3147 65.5506 53.2379 65.6399 53.1782C65.9395 52.9734 65.9331 52.4189 65.6271 52.1971C65.2574 51.9326 63.026 52.6748 62.1462 53.3659L61.8785 53.5707L61.7382 53.2976C61.6553 53.1441 61.4003 52.7431 61.1644 52.4189L60.7373 51.8217L61.2027 50.5761C61.6298 49.4158 61.8338 48.6395 62.0187 47.4706C62.0825 47.0611 62.0761 46.9929 61.9677 46.8308C61.8402 46.6346 61.5661 46.609 61.4067 46.7625ZM59.016 51.8046C59.8575 52.2141 60.8776 53.4 61.2473 54.3982C61.4386 54.9186 61.4577 55.0551 61.4577 55.7035C61.4577 56.369 61.4386 56.4714 61.2409 56.9577C60.9796 57.6146 60.5205 58.2033 60.036 58.5019C59.7109 58.7066 59.6025 58.7322 58.9713 58.7237C58.3976 58.7237 58.2063 58.6895 57.9258 58.536C56.8803 57.9473 56.2045 56.7017 55.8092 54.62C55.6052 53.5536 55.6052 53.5536 55.9558 52.9564C56.6316 51.7961 57.9704 51.2927 59.016 51.8046ZM54.6234 54.0058C54.7509 54.0484 54.8593 54.1423 54.8593 54.202C54.8593 54.2702 54.9294 54.6627 55.0187 55.0722C55.2609 56.2069 55.7965 57.606 56.23 58.2374L56.587 58.7749L56.485 59.2441C56.3511 59.8754 56.0387 60.3276 55.4649 60.703C54.9422 61.0442 54.3811 61.1637 54.0178 61.0016C53.8138 60.9163 53.7245 60.7542 53.24 59.6707C52.4303 57.8705 51.7992 56.3263 51.7992 56.1728C51.7992 55.9168 52.0478 55.3793 52.3092 55.0807C52.7618 54.5688 53.801 53.946 54.2536 53.9204C54.3238 53.9119 54.4895 53.9546 54.6234 54.0058ZM50.8301 56.6932C51.0596 56.8126 51.1234 56.9321 51.6398 58.2033C51.9458 58.9626 52.3984 60.0205 52.6343 60.5579C52.8766 61.0954 53.0742 61.6158 53.0742 61.7097C53.0678 62.3069 52.3857 63.3819 51.7035 63.8682C51.1616 64.2521 50.7727 64.3715 50.454 64.2435C50.2181 64.1497 50.1416 64.0132 49.0769 61.8633C48.4585 60.6091 47.923 59.483 47.8911 59.3635C47.7955 59.0479 47.9867 58.4165 48.2928 58.0156C48.7837 57.3842 49.9695 56.5652 50.4094 56.5567C50.505 56.5567 50.6962 56.6164 50.8301 56.6932ZM46.9986 59.756C47.0687 59.8242 47.209 60.0631 47.311 60.2849C47.4066 60.5153 47.9421 61.6158 48.4968 62.742C49.1215 64.0217 49.5041 64.8663 49.5041 65.0028C49.5041 65.3953 49.1917 66.1205 48.8155 66.6153C48.3693 67.1954 47.8274 67.5794 47.3683 67.6305C46.7946 67.6903 46.6288 67.5623 46.1443 66.6835C45.3729 65.2759 43.9576 62.4178 43.9576 62.2557C43.9576 61.9656 44.1998 61.4452 44.4995 61.0954C45.5004 59.9181 46.5651 59.3465 46.9986 59.756ZM43.4348 63.4672C43.6133 63.834 44.5441 65.6 45.3793 67.1613C45.9275 68.1851 45.9594 68.3728 45.7363 68.9785C45.5641 69.4648 44.7099 70.5227 44.2508 70.8384C43.9958 71.009 43.7663 71.0943 43.4603 71.1199C42.7144 71.1796 42.7335 71.2138 41.0504 67.878L40.2408 66.2826L40.3173 65.8219C40.4129 65.2332 40.6552 64.7981 41.1971 64.1924C41.8282 63.4928 42.4148 63.1259 42.8802 63.1259C43.2499 63.1259 43.2627 63.1344 43.4348 63.4672ZM40.024 67.9206C40.279 68.4069 40.7189 69.243 40.9931 69.7805C41.2672 70.318 41.6178 70.9749 41.7709 71.2394C41.994 71.6318 42.045 71.7683 42.0067 71.9475C41.9175 72.4508 41.0249 73.2016 40.1197 73.5343C39.157 73.8927 38.5768 73.6879 37.8628 72.7324C36.9894 71.5636 36.6706 70.1985 37.0276 69.1577C37.3337 68.2619 38.6597 67.076 39.3801 67.0589C39.5268 67.0504 39.6224 67.1784 40.024 67.9206ZM36.116 71.0602C36.116 71.3417 36.677 72.7153 36.983 73.176C37.1424 73.4234 37.2635 73.6452 37.2444 73.6708C37.1488 73.7988 35.9566 74.4301 35.453 74.6093C34.656 74.8994 33.6806 74.9676 33.3746 74.7543C33.177 74.6178 33.1515 74.5666 33.1579 74.2766C33.1706 73.7561 33.5595 73.0822 34.2672 72.3655C34.9493 71.683 35.9949 70.8043 36.0714 70.864C36.0969 70.881 36.116 70.9664 36.116 71.0602Z" fill="#707070"/>
</svg>
