<svg width="108" height="107" viewBox="0 0 108 107" fill="none" xmlns="http://www.w3.org/2000/svg">
<path d="M89.6212 0.215929C89.4537 0.356976 89.1001 1.20326 88.821 2.08983C88.1883 4.14509 86.7368 7.46976 85.7319 9.12202L84.9503 10.4116L84.0571 9.7265C79.9631 6.52273 73.9897 7.28841 69.9888 11.5198L69.0211 12.5273L68.2209 12.2452C66.9183 11.7818 65.0946 11.943 62.5452 12.7489C59.605 13.6758 58.6745 14.1997 57.5022 15.59L56.5531 16.6982L55.846 16.4161C55.4552 16.2549 54.8597 16.0736 54.5247 16.0132C53.2035 15.7714 48.3094 17.2826 46.3182 18.5721C45.7413 18.9348 44.9598 19.7005 44.4759 20.3856C43.6571 21.514 43.6199 21.5341 42.9686 21.3931C41.6288 21.0707 39.9354 21.2722 38.1117 21.9371C34.6504 23.2065 32.9384 24.3954 31.9707 26.229L31.4497 27.2163L29.8121 27.2566C28.4536 27.2969 27.9512 27.3976 27.0394 27.8409C25.3087 28.7074 22.4988 30.8432 21.3078 32.1932C20.1541 33.5029 19.7447 34.3291 19.4283 36.0418C19.205 37.1299 19.205 37.15 18.4793 37.2507C17.1208 37.4522 15.9485 38.2582 14.1806 40.1523C11.5195 43.0135 10.5705 44.8874 10.5705 47.2046V48.2322L9.64003 48.7158C5.95547 50.6099 2.95943 57.098 4.13179 60.6443C4.33649 61.269 4.31788 61.4302 4.09457 61.7526C3.49909 62.5988 1.61959 67.0922 0.986885 69.1877C0.614706 70.3967 0.223919 72.1094 0.0936566 72.9759C-0.278522 75.7968 0.465835 77.9125 2.19646 78.92C3.313 79.5647 4.89476 79.464 6.4393 78.6379C7.98384 77.8319 10.6077 74.8699 13.0455 71.1825C14.9808 68.2407 15.0738 68.1198 15.7996 68.0191C17.2139 67.8176 18.5723 66.8907 20.4518 64.8757C22.2941 62.8809 22.9826 61.6921 23.1687 60.2414C23.2618 59.4958 23.3176 59.4354 24.0433 59.3145C27.0394 58.7906 30.0354 55.4861 30.7425 51.8995C30.8542 51.4159 30.9472 51.3554 31.6544 51.3554C34.4829 51.3554 38.0372 48.8972 39.3213 46.0158L39.8423 44.8874L40.6053 45.0486C41.8707 45.3106 43.713 45.1695 44.9039 44.7262C47.4161 43.759 49.7795 41.7844 50.6541 39.9105L51.1379 38.8829L51.8265 39.1045C52.8127 39.4067 54.3387 39.2053 56.0507 38.5605L57.5394 37.9963L57.893 38.4799C59.0095 40.0112 60.4982 41.7038 61.8939 43.0135C63.1407 44.2023 63.5873 44.5046 64.0525 44.5046C64.6852 44.5046 65.169 44.2023 65.3365 43.6784C65.4482 43.3158 65.0016 42.0866 64.741 42.0866C64.4991 42.0866 61.3914 38.8829 60.4238 37.6336L59.6608 36.6463L60.5168 35.8201C60.982 35.3768 61.6334 34.5104 61.9683 33.9059C62.5452 32.8582 62.6196 32.8179 63.1407 32.9589C63.4384 33.0596 64.4619 33.1201 65.3924 33.1201H67.0858L67.7185 34.4298C68.9094 36.9888 72.6498 40.2732 74.4363 40.3135C75.4784 40.3538 76.1111 38.9232 75.3667 38.1978C75.1806 38.0164 74.5107 37.5731 73.8594 37.2306C72.3893 36.4448 70.7145 34.7724 70.0446 33.4223C69.7654 32.8582 69.5608 32.3746 69.598 32.3343C69.6166 32.3141 70.0818 31.9917 70.6028 31.6492C71.5705 30.9842 73.1151 29.3521 73.7291 28.3447L74.0455 27.8208L74.8457 28.3044C77.7859 30.0775 81.2658 30.2387 84.0571 28.6872L84.9875 28.1835L85.2481 28.6066C85.3969 28.8282 85.9552 29.5133 86.4949 30.1178C87.537 31.2865 88.0952 31.488 88.8768 30.8835C89.5653 30.3596 89.4165 29.5738 88.3558 28.2036C87.8533 27.5387 87.3509 26.9543 87.2392 26.8737C87.109 26.7931 87.295 26.3902 87.7231 25.8058C88.1138 25.2819 88.4488 24.8185 88.486 24.7782C88.6163 24.5969 90.5702 26.229 91.1285 26.9745C91.6123 27.6193 91.8356 27.7805 92.3381 27.7805C93.3429 27.7805 93.9384 26.7327 93.4918 25.7857C93.1196 25.0401 91.1099 23.0252 90.2166 22.5416C89.5095 22.1588 89.5095 22.1386 89.6956 21.3931C89.7886 20.9901 89.8445 20.1237 89.8072 19.4789L89.7328 18.3102L90.7563 17.8871C92.8219 17.0609 94.813 16.6982 97.6044 16.6982C100.191 16.6982 100.265 16.6781 100.545 16.2146C100.917 15.6303 100.749 14.784 100.21 14.381C99.9119 14.1594 99.2234 14.0788 97.4183 14.0788C94.7572 14.0788 92.1892 14.5422 90.0678 15.4087C89.1745 15.7714 88.8024 15.8318 88.7465 15.6706C88.7093 15.5296 88.2441 14.7437 87.7231 13.8975L86.7554 12.3661L87.7417 10.7541C89.3606 8.13469 91.7054 2.51297 91.7054 1.2637C91.7054 0.316677 90.3283 -0.368407 89.6212 0.215929ZM81.6379 11.2982C84.4665 12.7892 87.2206 17.0609 87.2392 19.9625C87.2578 24.1133 82.5126 27.9014 78.4372 26.9946C74.1385 26.0073 71.403 22.0782 70.9564 16.2549C70.8262 14.5825 70.8448 14.4818 71.31 13.8169C71.9241 12.9504 73.5989 11.681 74.9387 11.0765C77.0043 10.1295 79.6096 10.2101 81.6379 11.2982ZM67.6999 14.9452C68.0534 15.1467 68.2023 15.4288 68.314 16.1945C69.0025 20.7886 69.5608 22.6625 70.7703 24.3551C72.1288 26.2491 72.073 26.0678 71.6077 26.8536C70.9936 27.9417 69.4119 29.3924 68.1279 30.0372C67.1416 30.541 66.7136 30.6417 65.4854 30.6417C63.0104 30.6619 62.8429 30.4805 61.3356 26.7528C60.6657 25.0401 59.7539 22.5416 59.3258 21.1714C58.4512 18.4311 58.4698 18.0886 59.4747 17.0408C60.9634 15.4893 66.2298 14.1392 67.6999 14.9452ZM55.418 19.1565L56.2368 19.6199L57.3161 22.8438C57.9116 24.5969 58.8234 27.1155 59.3445 28.4253C60.4238 31.1253 60.4424 31.4678 59.4933 32.9388C57.7069 35.7798 52.9244 37.4522 51.1565 35.8806C50.803 35.5783 46.5229 25.967 45.9274 24.1133C45.6855 23.408 45.7041 23.3073 46.2252 22.4006C46.9137 21.1916 47.8441 20.5065 49.8353 19.7207C52.7197 18.5721 54.0967 18.4311 55.418 19.1565ZM42.8197 24.1737C43.1361 24.3349 43.5269 25.0401 44.2526 26.8334C44.8109 28.1835 46.0391 31.0447 46.9881 33.2007C47.9372 35.3567 48.7188 37.3515 48.7188 37.6537C48.7188 39.8299 44.2526 43.0135 41.7404 42.6105C40.4564 42.3889 39.8051 41.7642 38.7072 39.6888C37.0324 36.4448 33.6455 29.2514 33.6455 28.9088C33.6455 28.3245 34.3527 27.0551 34.9668 26.4909C36.9393 24.6976 41.2752 23.408 42.8197 24.1737ZM31.2822 30.3596C31.4683 30.5208 32.2126 31.9917 32.957 33.6037C34.5388 37.0896 36.2694 40.6157 37.0324 41.9456C37.4976 42.7314 37.572 43.0135 37.4604 43.6583C37.1812 45.2904 35.7483 47.0636 33.7572 48.1919C32.7151 48.7763 30.8728 48.7964 30.2959 48.2322C30.054 48.0106 28.6956 46.3785 27.2441 44.6255C21.5683 37.6739 21.6428 37.7948 21.8661 36.606C22.1266 35.0746 23.2618 33.5634 25.2901 32.0723C26.3694 31.2663 28.342 30.1783 29.0864 29.9768C29.8307 29.7753 30.8728 29.9566 31.2822 30.3596ZM20.489 40.3336C20.7123 40.5754 21.7358 41.865 22.7593 43.1949C23.7828 44.5046 25.439 46.6001 26.4625 47.8091L28.2862 50.0457L28.2117 51.0532C28.1001 52.4032 27.4674 53.7331 26.3136 55.0025C25.2157 56.2114 24.1922 56.7756 23.1129 56.7958C22.2011 56.7958 22.108 56.7353 17.0836 52.3024C13.3246 48.9778 13.0827 48.6151 13.2129 46.8016C13.306 45.5121 14.1434 43.9605 15.6135 42.2881C17.6419 39.9911 19.5028 39.2254 20.489 40.3336ZM15.9298 54.5995C18.256 56.6144 20.2657 58.3674 20.4146 58.5085C20.5449 58.6495 20.6565 59.1533 20.6565 59.6369C20.6193 61.8735 16.9161 65.4601 14.6086 65.4601C12.0778 65.4399 7.57444 62.5384 6.644 60.322C6.45791 59.8787 6.29043 59.1936 6.29043 58.7906C6.27182 55.8488 9.45394 51.033 11.4637 50.9524C11.5754 50.9524 13.5851 52.6047 15.9298 54.5995ZM6.68121 64.372C7.40696 65.2183 9.75169 66.8101 10.9427 67.2937C11.5568 67.5355 12.0592 67.7571 12.0592 67.7974C12.0592 67.9586 10.1611 70.7997 8.93289 72.4721C6.92313 75.1923 5.22972 76.5423 3.83405 76.5423C2.81056 76.5423 2.4756 75.8774 2.51282 74.0236C2.53142 72.9759 2.71751 72.0087 3.18274 70.4572C3.85266 68.281 5.78799 63.8481 6.06712 63.8481C6.16016 63.8481 6.42069 64.0899 6.68121 64.372Z" fill="#6F6F6F"/>
<path d="M94.9993 37.0893C94.8318 37.2303 94.4968 38.1975 94.2363 39.2654C93.678 41.5625 92.7476 44.0409 91.7055 45.9349C91.2775 46.7006 90.9239 47.3253 90.8867 47.3253C90.8495 47.3253 90.347 47.1036 89.7888 46.8215C86.8299 45.3506 83.592 45.4514 80.5029 47.1439C79.3305 47.7887 77.5255 49.5014 76.7439 50.7305L76.2229 51.5164L74.8458 51.4156C73.6734 51.3149 73.2454 51.3753 71.887 51.8589C70.3238 52.4029 68.0721 53.6724 66.8254 54.7C66.4718 55.0022 65.8577 55.7679 65.4669 56.4328L64.7412 57.6217L63.0105 57.662C61.3915 57.7023 61.1682 57.7627 59.6237 58.5687C56.423 60.2411 54.376 62.0143 53.5386 63.9285L53.1292 64.815H51.808C50.189 64.815 48.6072 65.3994 46.7649 66.6889C43.8433 68.7442 42.8012 69.8927 42.2057 71.7263L41.8708 72.8144L40.4937 72.9353C39.005 73.0763 37.9443 73.5599 35.9718 74.9906C33.1246 77.0458 31.8034 78.6779 31.2079 80.7735L30.8171 82.1638L29.9611 82.3048C28.6585 82.5063 27.0953 83.2519 25.3833 84.481C23.02 86.1937 21.7732 87.8056 21.1777 89.9616C20.9916 90.6266 20.7869 90.8684 20.0984 91.2714C18.8143 91.9968 14.7576 94.9587 13.3433 96.208C12.0593 97.3364 10.6264 99.2707 10.2542 100.379C9.95649 101.266 9.95649 103.019 10.2728 103.804C10.6078 104.651 11.2033 105.235 12.3384 105.799C13.6225 106.444 16.6557 106.444 18.9074 105.779C21.0846 105.154 23.634 104.127 25.4019 103.16L26.9278 102.333L28.0071 102.898C29.4586 103.623 31.6173 103.643 33.5526 102.978C36.9394 101.769 39.7308 99.8148 40.4379 98.1222L40.7729 97.2961H42.2244C43.955 97.2961 45.2576 96.8326 47.0441 95.5834C49.4074 93.9513 51.2125 91.8356 51.8824 89.9012L52.1801 89.0146L53.8549 88.9743C55.2134 88.9139 55.7158 88.8131 56.5718 88.3497C58.991 87.1004 61.1496 84.8638 62.1917 82.5466L62.8058 81.1563L64.1829 81.116C65.3552 81.0757 65.7646 80.9548 66.9742 80.31L68.3885 79.5443L69.4864 80.7735C70.5657 81.9824 72.7616 83.7153 74.3434 84.5817C75.5715 85.2467 76.5206 85.1258 76.8369 84.2795C77.1161 83.4735 76.6695 82.8086 75.4413 82.1436C74.8086 81.8011 73.934 81.2571 73.4687 80.9145C72.5755 80.2496 70.4913 78.1943 70.4913 77.9525C70.4913 77.8921 70.8635 77.3883 71.3287 76.8443C71.7939 76.3204 72.408 75.3331 72.7058 74.6682L73.2454 73.4592L74.5294 73.4995C75.2366 73.5196 76.0368 73.4592 76.2973 73.3383C76.7811 73.1368 76.8556 73.2174 77.879 74.5674C79.2003 76.3406 80.5401 77.348 82.5499 78.154C84.5038 78.9197 85.2296 78.9399 85.732 78.2346C85.9553 77.9324 86.1228 77.5697 86.1228 77.4286C86.1228 76.8846 85.2482 76.1995 83.9828 75.7764C82.2521 75.2122 80.782 74.2249 80.0377 73.1569C79.7027 72.6734 79.4236 72.2099 79.4236 72.1495C79.4236 72.0689 79.8516 71.7062 80.354 71.3435C81.3961 70.6181 82.4196 69.2278 82.8848 67.9181C83.164 67.1725 83.257 67.0718 83.592 67.1725C85.7878 67.9584 86.6625 68.0994 88.4489 68.0188C90.4959 67.9181 91.8916 67.4546 93.4361 66.286C94.1619 65.7419 94.3107 65.7016 94.4968 65.9636C94.6271 66.1449 95.2412 66.6889 95.8553 67.1927C97.0835 68.18 97.6417 68.2405 98.2744 67.4345C98.8327 66.7091 98.6652 66.2457 97.3626 64.9561L96.1344 63.7471L96.6368 62.7799C96.916 62.2561 97.2509 61.8329 97.3998 61.8329C97.8092 61.8329 98.9816 62.518 99.9678 63.324C100.433 63.727 100.973 64.0494 101.159 64.0494C101.68 64.0494 102.257 63.5053 102.368 62.9008C102.443 62.4173 102.331 62.1956 101.568 61.4098C101.084 60.8859 100.061 60.1404 99.2979 59.7172L97.9022 58.9717L97.7906 57.6418C97.7162 56.8963 97.6603 56.1104 97.6231 55.909C97.4928 55.0224 102.573 52.8865 105.327 52.6447C106.183 52.5641 107.095 52.3828 107.356 52.2417C108.23 51.7582 108.212 50.4484 107.318 49.9245C106.239 49.2999 99.7259 51.0529 97.1579 52.685L96.3763 53.1686L95.9669 52.5238C95.725 52.1611 94.9806 51.2141 94.2921 50.4484L93.0453 49.038L94.4038 46.0961C95.6506 43.3558 96.2461 41.5222 96.7857 38.7617C96.9718 37.7945 96.9532 37.6333 96.6368 37.2505C96.2647 36.7871 95.4645 36.7266 94.9993 37.0893ZM88.0209 48.9977C90.4773 49.9648 93.4547 52.7656 94.534 55.1231C95.0923 56.3522 95.1481 56.6746 95.1481 58.206C95.1481 59.7777 95.0923 60.0195 94.5154 61.168C93.7525 62.7195 92.4126 64.1098 90.9983 64.815C90.0493 65.2986 89.7329 65.3591 87.8906 65.3389C86.2158 65.3389 85.6576 65.2583 84.8388 64.8956C81.7869 63.5053 79.8144 60.5635 78.6606 55.647C78.0651 53.1283 78.0651 53.1283 79.0886 51.7179C81.0612 48.9775 84.969 47.7887 88.0209 48.9977ZM75.1994 54.1962C75.5715 54.297 75.8879 54.5186 75.8879 54.6597C75.8879 54.8209 76.0926 55.7478 76.3531 56.7149C77.0603 59.3948 78.6234 62.6993 79.8888 64.1904L80.9309 65.4598L80.6332 66.5681C80.2424 68.0591 79.3305 69.127 77.6557 70.0136C76.1298 70.8196 74.4922 71.1017 73.4315 70.7189C72.836 70.5174 72.5755 70.1345 71.1612 67.5755C68.7979 63.324 66.9556 59.6769 66.9556 59.3142C66.9556 58.7097 67.6814 57.4403 68.4443 56.7351C69.7656 55.5261 72.7988 54.0552 74.12 53.9947C74.3247 53.9746 74.8086 54.0753 75.1994 54.1962ZM64.1271 60.5433C64.797 60.8254 64.9831 61.1075 66.4904 64.1098C67.3836 65.9031 68.7049 68.4017 69.3934 69.6711C70.1005 70.9405 70.6774 72.1696 70.6774 72.3913C70.6588 73.8017 68.6676 76.3406 66.6765 77.4891C65.0947 78.3958 63.9596 78.6779 63.0291 78.3757C62.3406 78.154 62.1173 77.8316 59.0096 72.754C57.2045 69.792 55.6414 67.1322 55.5483 66.8501C55.2692 66.1046 55.8275 64.6135 56.7207 63.6665C58.1536 62.1755 61.6149 60.2411 62.8989 60.221C63.178 60.221 63.7363 60.362 64.1271 60.5433ZM52.9431 67.777C53.1478 67.9382 53.5572 68.5024 53.8549 69.0263C54.1341 69.5703 55.6972 72.1696 57.3162 74.8294C59.1399 77.8518 60.2564 79.8466 60.2564 80.169C60.2564 81.0959 59.3446 82.8086 58.2466 83.9772C56.944 85.3474 55.3623 86.2541 54.0224 86.375C52.3476 86.5161 51.8638 86.2138 50.4495 84.1384C48.1978 80.8138 44.0666 74.0637 44.0666 73.6808C44.0666 72.9957 44.7738 71.7666 45.6484 70.9405C48.57 68.1599 51.6777 66.8098 52.9431 67.777ZM42.5407 76.5421C43.0618 77.4085 45.7787 81.5794 48.2164 85.2668C49.8168 87.6848 49.9098 88.128 49.2585 89.5587C48.7561 90.7072 46.2625 93.2057 44.9227 93.9513C44.1783 94.3542 43.5084 94.5557 42.6151 94.6162C40.4379 94.7572 40.4937 94.8378 35.581 86.9594L33.2176 83.1914L33.4409 82.1033C33.7201 80.713 34.4272 79.6854 36.009 78.2548C37.8513 76.6025 39.5633 75.7361 40.9217 75.7361C42.0011 75.7361 42.0383 75.7562 42.5407 76.5421ZM32.5849 87.0601C33.3293 88.2086 34.6133 90.1833 35.4135 91.4527C36.2137 92.7221 37.2372 94.2736 37.6838 94.8983C38.3351 95.8252 38.484 96.1476 38.3723 96.5707C38.1118 97.7595 35.5065 99.5327 32.8641 100.319C30.0541 101.165 28.3607 100.681 26.2765 98.4244C23.7271 95.664 22.7966 92.44 23.8387 89.9818C24.732 87.8661 28.6026 85.0653 30.7054 85.025C31.1334 85.0049 31.4126 85.3071 32.5849 87.0601ZM21.1777 94.4751C21.1777 95.1401 22.8153 98.3842 23.7085 99.4722C24.1737 100.057 24.5273 100.58 24.4715 100.641C24.1923 100.943 20.7124 102.434 19.2423 102.857C16.9162 103.542 14.0691 103.704 13.1758 103.2C12.599 102.877 12.5245 102.757 12.5431 102.072C12.5804 100.842 13.7155 99.2506 15.7811 97.558C17.7722 95.9461 20.8241 93.8707 21.0474 94.0117C21.1218 94.052 21.1777 94.2535 21.1777 94.4751Z" fill="#6F6F6F"/>
</svg>
