<svg width="15" height="13" viewBox="0 0 15 13" fill="none" xmlns="http://www.w3.org/2000/svg">
<g id="Group 33">
<path id="Vector" d="M6.45455 11.9412H5.90909C5.75455 11.9412 5.62509 11.8904 5.52073 11.7887C5.41636 11.6871 5.364 11.5614 5.36364 11.4118C5.36327 11.2621 5.41564 11.1365 5.52073 11.0348C5.62582 10.9332 5.75527 10.8824 5.90909 10.8824H6.45455V9.77059C5.73636 9.64706 5.14764 9.31388 4.68836 8.77106C4.22909 8.22824 3.99964 7.59965 4 6.88529C4 6.08235 4.29327 5.40082 4.87982 4.84071C5.46636 4.28059 6.17309 4.00035 7 4C7.82691 3.99965 8.53382 4.27988 9.12073 4.84071C9.70763 5.40153 10.0007 6.08306 10 6.88529C10 7.6 9.77036 8.22876 9.31109 8.77159C8.85182 9.31441 8.26327 9.64741 7.54545 9.77059V10.8824H8.09091C8.24545 10.8824 8.37509 10.9332 8.47982 11.0348C8.58454 11.1365 8.63673 11.2621 8.63636 11.4118C8.636 11.5614 8.58364 11.6872 8.47927 11.7892C8.37491 11.8912 8.24545 11.9419 8.09091 11.9412H7.54545V12.4706C7.54545 12.6206 7.49309 12.7464 7.38836 12.8481C7.28364 12.9497 7.15418 13.0004 7 13C6.84582 12.9996 6.71636 12.9488 6.61164 12.8475C6.50691 12.7462 6.45455 12.6206 6.45455 12.4706V11.9412ZM7 8.76471C7.52727 8.76471 7.97727 8.58382 8.35 8.22206C8.72273 7.86029 8.90909 7.42353 8.90909 6.91176C8.90909 6.4 8.72273 5.96324 8.35 5.60147C7.97727 5.23971 7.52727 5.05882 7 5.05882C6.47273 5.05882 6.02273 5.23971 5.65 5.60147C5.27727 5.96324 5.09091 6.4 5.09091 6.91176C5.09091 7.42353 5.27727 7.86029 5.65 8.22206C6.02273 8.58382 6.47273 8.76471 7 8.76471Z" fill="#707070"/>
<path id="Vector_2" d="M2.91381 2.84663L2.38023 2.4233C2.22904 2.30335 2.06177 2.25411 1.8784 2.27556C1.69503 2.29701 1.54333 2.383 1.42331 2.53355C1.3033 2.68409 1.25387 2.85122 1.27504 3.03495C1.29621 3.21868 1.38238 3.37051 1.53356 3.49046L2.06714 3.91379C2.21705 4.03388 2.38418 4.0833 2.56855 4.06206C2.75291 4.04082 2.90475 3.95465 3.02405 3.80354C3.14336 3.65243 3.19261 3.48515 3.1718 3.30171C3.15098 3.11826 3.06499 2.96657 2.91381 2.84663Z" fill="#707070"/>
<path id="Vector_3" d="M1.34325 7.11323L0.671618 7.22646C0.481321 7.25855 0.332789 7.3499 0.226023 7.50052C0.119257 7.65114 0.0816539 7.82141 0.113213 8.01133C0.144772 8.20126 0.235899 8.34983 0.386594 8.45704C0.537289 8.56425 0.707785 8.60182 0.898082 8.56974L1.56972 8.45651C1.75927 8.42547 1.90784 8.33434 2.01543 8.18312C2.12301 8.03191 2.16058 7.86141 2.12812 7.67164C2.09567 7.48186 2.00432 7.33333 1.85407 7.22604C1.70382 7.11875 1.53355 7.08115 1.34325 7.11323Z" fill="#707070"/>
<path id="Vector_4" d="M2.84102 10.5358L2.42051 11.0716C2.30137 11.2234 2.253 11.391 2.27542 11.5742C2.29784 11.7575 2.38463 11.9087 2.53581 12.0279C2.68698 12.1472 2.85437 12.1957 3.03799 12.1736C3.2216 12.1514 3.37298 12.0644 3.49212 11.9126L3.91263 11.3768C4.03193 11.2263 4.08048 11.0589 4.05826 10.8746C4.03605 10.6904 3.94907 10.539 3.79734 10.4205C3.64561 10.302 3.47807 10.2536 3.29474 10.2754C3.11141 10.2972 2.96017 10.384 2.84102 10.5358Z" fill="#707070"/>
<path id="Vector_5" d="M10.421 11.3774L10.842 11.9129C10.9613 12.0646 11.1127 12.1512 11.296 12.1728C11.4794 12.1944 11.6468 12.1459 11.7985 12.0272C11.9501 11.9086 12.0369 11.7574 12.0588 11.5738C12.0808 11.3902 12.0321 11.2225 11.9129 11.0708L11.4918 10.5354C11.3738 10.3839 11.2227 10.2971 11.0384 10.275C10.8541 10.253 10.6865 10.3017 10.5354 10.421C10.3843 10.5404 10.2977 10.6917 10.2755 10.875C10.2532 11.0583 10.3017 11.2257 10.421 11.3774Z" fill="#707070"/>
<path id="Vector_6" d="M12.6798 7.40127L13.3597 7.44286C13.5523 7.45464 13.7177 7.39925 13.8557 7.27667C13.9938 7.1541 14.0689 6.99674 14.0811 6.8046C14.0933 6.61246 14.0382 6.44713 13.9156 6.30862C13.7931 6.1701 13.6355 6.09495 13.4429 6.08317L12.763 6.04158C12.5714 6.02895 12.406 6.08411 12.267 6.20709C12.128 6.33006 12.0529 6.48764 12.0416 6.67984C12.0303 6.87203 12.0857 7.03738 12.2078 7.17586C12.3299 7.31435 12.4872 7.38949 12.6798 7.40127Z" fill="#707070"/>
<path id="Vector_7" d="M7.37119 1.38022L7.38025 0.699169C7.38282 0.506204 7.31959 0.343696 7.19056 0.211647C7.06154 0.0795984 6.90077 0.0120655 6.70826 0.00904878C6.51576 0.0060321 6.35325 0.0690353 6.22075 0.198057C6.08825 0.327079 6.02071 0.488073 6.01814 0.681038L6.00908 1.36209C6.00561 1.55414 6.06862 1.71664 6.19809 1.8496C6.32756 1.98257 6.48855 2.0501 6.68107 2.05221C6.87358 2.05432 7.03609 1.99109 7.16859 1.86252C7.30109 1.73395 7.36862 1.57319 7.37119 1.38022Z" fill="#707070"/>
<path id="Vector_8" d="M11.4921 3.91262L11.9126 3.37681C12.0318 3.225 12.0801 3.05747 12.0577 2.87421C12.0353 2.69096 11.9485 2.53972 11.7973 2.4205C11.6461 2.30127 11.4788 2.25273 11.2951 2.27487C11.1115 2.29701 10.9602 2.38398 10.841 2.53579L10.4205 3.0716C10.3012 3.22213 10.2527 3.38953 10.2749 3.57378C10.2971 3.75803 10.3841 3.90941 10.5358 4.02791C10.6875 4.14642 10.8551 4.19478 11.0384 4.173C11.2217 4.15122 11.373 4.06443 11.4921 3.91262Z" fill="#707070"/>
</g>
</svg>
