<svg width="6" height="9" viewBox="0 0 6 9" fill="none" xmlns="http://www.w3.org/2000/svg">
<path id="Vector" d="M2.45455 7.94118H1.90909C1.75455 7.94118 1.62509 7.89035 1.52073 7.7887C1.41636 7.68706 1.364 7.56141 1.36364 7.41176C1.36327 7.26212 1.41564 7.13647 1.52073 7.03482C1.62582 6.93318 1.75527 6.88235 1.90909 6.88235H2.45455V5.77059C1.73636 5.64706 1.14764 5.31388 0.688364 4.77106C0.229091 4.22824 -0.000363205 3.59965 4.3153e-07 2.88529C4.3153e-07 2.08235 0.293273 1.40082 0.879818 0.840706C1.46636 0.280588 2.17309 0.000353274 3 3.32963e-07C3.82691 -0.000352608 4.53382 0.279883 5.12073 0.840706C5.70763 1.40153 6.00073 2.08306 6 2.88529C6 3.6 5.77036 4.22876 5.31109 4.77159C4.85182 5.31441 4.26327 5.64741 3.54545 5.77059V6.88235H4.09091C4.24545 6.88235 4.37509 6.93318 4.47982 7.03482C4.58454 7.13647 4.63673 7.26212 4.63636 7.41176C4.636 7.56141 4.58364 7.68723 4.47927 7.78923C4.37491 7.89123 4.24545 7.94188 4.09091 7.94118H3.54545V8.47059C3.54545 8.62059 3.49309 8.74641 3.38836 8.84806C3.28364 8.9497 3.15418 9.00035 3 9C2.84582 8.99965 2.71636 8.94882 2.61164 8.84753C2.50691 8.74623 2.45455 8.62059 2.45455 8.47059V7.94118ZM3 4.76471C3.52727 4.76471 3.97727 4.58382 4.35 4.22206C4.72273 3.86029 4.90909 3.42353 4.90909 2.91176C4.90909 2.4 4.72273 1.96324 4.35 1.60147C3.97727 1.23971 3.52727 1.05882 3 1.05882C2.47273 1.05882 2.02273 1.23971 1.65 1.60147C1.27727 1.96324 1.09091 2.4 1.09091 2.91176C1.09091 3.42353 1.27727 3.86029 1.65 4.22206C2.02273 4.58382 2.47273 4.76471 3 4.76471Z" fill="#707070"/>
</svg>
