<svg width="21" height="32" viewBox="0 0 21 32" fill="none" xmlns="http://www.w3.org/2000/svg">
<path d="M8.59091 28.2353H6.68182C6.14091 28.2353 5.68782 28.0546 5.32255 27.6932C4.95727 27.3318 4.774 26.885 4.77273 26.3529C4.77145 25.8209 4.95473 25.3741 5.32255 25.0127C5.69036 24.6513 6.14345 24.4706 6.68182 24.4706H8.59091V20.5176C6.07727 20.0784 4.01673 18.8938 2.40927 16.9638C0.80182 15.0337 -0.00127122 12.7987 1.51036e-06 10.2588C1.51036e-06 7.40392 1.02646 4.98071 3.07936 2.98918C5.13227 0.997648 7.60582 0.00125609 10.5 1.18387e-06C13.3942 -0.00125372 15.8684 0.995138 17.9225 2.98918C19.9767 4.98322 21.0025 7.40643 21 10.2588C21 12.8 20.1963 15.0356 18.5888 16.9656C16.9814 18.8957 14.9215 20.0797 12.4091 20.5176V24.4706H14.3182C14.8591 24.4706 15.3128 24.6513 15.6794 25.0127C16.0459 25.3741 16.2285 25.8209 16.2273 26.3529C16.226 26.885 16.0427 27.3324 15.6775 27.6951C15.3122 28.0577 14.8591 28.2378 14.3182 28.2353H12.4091V30.1176C12.4091 30.651 12.2258 31.0983 11.8593 31.4598C11.4927 31.8212 11.0396 32.0012 10.5 32C9.96036 31.9987 9.50727 31.818 9.14073 31.4579C8.77418 31.0977 8.59091 30.651 8.59091 30.1176V28.2353ZM10.5 16.9412C12.3455 16.9412 13.9205 16.298 15.225 15.0118C16.5295 13.7255 17.1818 12.1725 17.1818 10.3529C17.1818 8.53333 16.5295 6.98039 15.225 5.69412C13.9205 4.40784 12.3455 3.76471 10.5 3.76471C8.65454 3.76471 7.07954 4.40784 5.775 5.69412C4.47045 6.98039 3.81818 8.53333 3.81818 10.3529C3.81818 12.1725 4.47045 13.7255 5.775 15.0118C7.07954 16.298 8.65454 16.9412 10.5 16.9412Z" fill="#707070"/>
<circle cx="10.5" cy="10.5" r="4.5" fill="#707070"/>
</svg>
