<?xml version="1.0" encoding="UTF-8" standalone="no"?>
<svg width="250" height="183.16326904296875" xmlns="http://www.w3.org/2000/svg">
    <g transform="translate(45.5, 31.500000000000004)">
        <g class="doughnut" transform="translate(79.5, 79.5)">
            <g class="subArc">
                <path d="M-54.706,46.914A7,7,0,0,1,-65.063,45.685A79.5,79.5,0,0,1,21.361,-76.577A7,7,0,0,1,25.975,-67.223L22.275,-58.019A7,7,0,0,1,14.017,-53.856A55.65,55.65,0,0,0,-46.094,31.182A7,7,0,0,1,-47.264,40.356Z"
                      style="fill: rgb(217, 217, 217); stroke: none;"></path>
            </g>
            <g class="subArc">
                <path d="M27.776,-66.5A7,7,0,0,1,37.579,-70.057A79.5,79.5,0,0,1,68.416,-40.491A7,7,0,0,1,65.273,-30.546L56.233,-26.463A7,7,0,0,1,47.391,-29.173A55.65,55.65,0,0,0,27.155,-48.575A7,7,0,0,1,24.076,-57.296Z"
                      style="fill: rgb(143, 143, 143);"></path>
            </g>
            <g class="subArc">
                <path d="M66.072,-28.777A7,7,0,0,1,75.611,-24.56A79.5,79.5,0,0,1,65.063,45.685A7,7,0,0,1,54.706,46.914L47.264,40.356A7,7,0,0,1,46.094,31.182A55.65,55.65,0,0,0,53.219,-16.268A7,7,0,0,1,57.032,-24.694Z"
                      style="fill: rgb(68, 68, 68);"></path>
            </g>
        </g>
        <g class="pointer" transform="translate(79.5, 79.5)">
            <path d="M -0.628066241206939 -12.8770351985203 L 55.50139637182033 -8.364172828275137 L 0.6280662412069401 4.277035198520301"
                  fill="#5A5A5A"></path>
            <circle cx="0" cy="-4.3" r="8.6" fill="#5A5A5A"></circle>
        </g>
        <g class="value-text" transform="translate(79.5, 135.27499999999998)">
            <text transform="rotate(0)"
                  style="font-size: 38.7px; fill: rgb(112, 112, 112); text-anchor: middle;">
                50
            </text>
        </g>
        <path class="tick-line" d="M13.831,135.463L8.629,140.146" stroke="rgb(173 172 171)" stroke-width="1" fill="none"></path>
        <g class="tick-value" transform="translate(2.951122796488363, 147.273058518409)">
            <text transform="rotate(0)" style="font-size: 20px; fill: rgb(173, 172, 171); text-anchor: end;">0</text>
        </g>
        <path class="tick-line" d="M110.469,3.665L113.223,-2.771" stroke="rgb(173 172 171)" stroke-width="1" fill="none"></path>
        <g class="tick-value" transform="translate(115.60037083234333, -7.361130446229396)">
            <text transform="rotate(0)" style="font-size: 20px; fill: rgb(173, 172, 171); text-anchor: middle;">35</text>
        </g>
        <path class="tick-line" d="M155.768,45.907L162.236,43.228" stroke="rgb(173 172 171)" stroke-width="1" fill="none"></path>
        <g class="tick-value" transform="translate(168.4046505084613, 42.87965696438297)">
            <text transform="rotate(0)" style="font-size: 20px; fill: rgb(173, 172, 171); text-anchor: start;">45</text>
        </g>
        <path class="tick-line" d="M145.169,135.463L150.204,140.325" stroke="rgb(173 172 171)" stroke-width="1" fill="none"></path>
        <g class="tick-value" transform="translate(156.0488772035116, 147.27305851840904)">
            <text transform="rotate(0)" style="font-size: 20px; fill: rgb(173, 172, 171); text-anchor: start;">60</text>
        </g>
    </g>
</svg>
