<?xml version="1.0" encoding="UTF-8" standalone="no"?>
<svg width="250" height="183.16" xmlns="http://www.w3.org/2000/svg">
    <g transform="translate(45.5,31.5)">
        <g transform="translate(79.5,79.5)">
            <path d="M-54.7,46.91A7,7,0,0,1,-65.06,45.69A79.5,79.5,0,0,1,-78.25,14.02A7,7,0,0,1,-71.83,5.8L-61.94,5.14A7,7,0,0,1,-54.6,10.77A55.65,55.65,0,0,0,-46.09,31.18A7,7,0,0,1,-47.26,40.36Z" fill="#D9D9D9"/>
            <path d="M-71.96,3.87A7,7,0,0,1,-79.43,-3.42A79.5,79.5,0,0,1,-33.7,-72A7,7,0,0,1,-24.1,-67.92L-20.91,-58.52A7,7,0,0,1,-24.46,-49.98A55.65,55.65,0,0,0,-55.55,-3.36A7,7,0,0,1,-62.07,3.2Z" fill="#A7A7A7"/>
            <path d="M-22.27,-68.54A7,7,0,0,1,-17.15,-77.63A79.5,79.5,0,0,1,60.9,-51.11A7,7,0,0,1,59.42,-40.78L51.17,-35.28A7,7,0,0,1,42,-36.51A55.65,55.65,0,0,0,-11.06,-54.54A7,7,0,0,1,-19.08,-59.15Z" fill="#767676"/>
            <path d="M60.5,-39.17A7,7,0,0,1,70.59,-36.56A79.5,79.5,0,0,1,65.06,45.69A7,7,0,0,1,54.71,46.91L47.26,40.36A7,7,0,0,1,46.09,31.18A55.65,55.65,0,0,0,49.85,-24.73A7,7,0,0,1,52.24,-33.66Z" fill="#444"/>
        </g>
        <g transform="translate(79.5,79.5)">
            <path d="M-4.65,-11.53L46.81,-34.39L4.65,2.93Z" fill="#5A5A5A"/>
            <circle cx="0" cy="-4.3" r="8.6" fill="#5A5A5A"/>
        </g>
        <g transform="translate(79.5,135.27)">
            <text font-size="38.7" fill="#707070" text-anchor="middle">50</text>
        </g>
        <g stroke="#ADACAB" stroke-width="1" fill="none">
            <path d="M13.83,135.46L8.63,140.15"/>
            <path d="M145.17,135.46L150.2,140.33"/>
            <path d="M-4.94,85.45L-11.92,85.93"/>
            <path d="M52.79,2.12L50.63,-4.54"/>
            <path d="M148.96,34.16L154.9,30.45"/>
        </g>
        <g font-size="20" fill="#ADACAB">
            <text x="2.95" y="147.27" text-anchor="end">0</text>
            <text x="156.05" y="147.27" text-anchor="start">70</text>
            <text x="-18.93" y="88.97" text-anchor="end">10</text>
            <text x="48.36" y="-9.16" text-anchor="middle">30</text>
            <text x="160.47" y="29.19" text-anchor="start">50</text>
        </g>
    </g>
</svg>