<svg width="29" height="27" viewBox="0 0 29 27" fill="none" xmlns="http://www.w3.org/2000/svg">
<g id="Group 32">
<path id="Vector" d="M26.7656 3.21141V7.83586C26.7656 8.16343 26.6544 8.4382 26.432 8.66017C26.2097 8.88214 25.9348 8.99274 25.6074 8.99197C25.2801 8.9912 25.0052 8.88022 24.7829 8.65901C24.5605 8.43781 24.4493 8.16343 24.4493 7.83586V6.01498L19.8458 10.5816C20.2125 11.1211 20.4924 11.6946 20.6854 12.3019C20.8784 12.9093 20.9749 13.5401 20.9749 14.1945C20.9749 15.9672 20.3573 17.4701 19.122 18.7033C17.8866 19.9365 16.3811 20.5531 14.6053 20.5531C12.8295 20.5531 11.3239 19.9365 10.0886 18.7033C8.85326 17.4701 8.2356 15.9672 8.2356 14.1945C8.2356 12.4218 8.85326 10.9188 10.0886 9.68564C11.3239 8.45246 12.8295 7.83586 14.6053 7.83586C15.2422 7.83586 15.8696 7.92719 16.4872 8.10986C17.1049 8.29253 17.6743 8.57693 18.1955 8.96307L22.799 4.36752H20.9749C20.6468 4.36752 20.372 4.25654 20.1504 4.03456C19.9288 3.81259 19.8176 3.53821 19.8168 3.21141C19.8161 2.88462 19.9272 2.61023 20.1504 2.38826C20.3735 2.16628 20.6484 2.0553 20.9749 2.0553H25.6074C25.9356 2.0553 26.2108 2.16628 26.4332 2.38826C26.6555 2.61023 26.7663 2.88462 26.7656 3.21141ZM14.6053 10.1481C13.4858 10.1481 12.5303 10.5431 11.7389 11.3331C10.9475 12.1231 10.5518 13.0769 10.5518 14.1945C10.5518 15.3121 10.9475 16.2659 11.7389 17.0559C12.5303 17.8459 13.4858 18.2409 14.6053 18.2409C15.7248 18.2409 16.6802 17.8459 17.4716 17.0559C18.263 16.2659 18.6587 15.3121 18.6587 14.1945C18.6587 13.0769 18.263 12.1231 17.4716 11.3331C16.6802 10.5431 15.7248 10.1481 14.6053 10.1481Z" fill="#707070"/>
<path id="Vector_2" d="M13.2892 24.5428H12.1662C11.848 24.5428 11.5815 24.4383 11.3666 24.2294C11.1517 24.0205 11.0439 23.7622 11.0432 23.4547C11.0424 23.1471 11.1502 22.8889 11.3666 22.6799C11.583 22.471 11.8495 22.3666 12.1662 22.3666H13.2892V20.0815C11.8106 19.8277 10.5984 19.1429 9.65286 18.0272C8.70727 16.9115 8.23485 15.6196 8.2356 14.1514C8.2356 12.5011 8.83941 11.1003 10.047 9.9491C11.2547 8.79789 12.7097 8.22192 14.4123 8.22119C16.1148 8.22047 17.5702 8.79644 18.7786 9.9491C19.987 11.1018 20.5904 12.5025 20.5889 14.1514C20.5889 15.6203 20.1161 16.9126 19.1705 18.0283C18.2249 19.144 17.0132 19.8284 15.5353 20.0815V22.3666H16.6583C16.9765 22.3666 17.2434 22.471 17.459 22.6799C17.6747 22.8889 17.7821 23.1471 17.7813 23.4547C17.7806 23.7622 17.6728 24.0209 17.4579 24.2305C17.243 24.4401 16.9765 24.5442 16.6583 24.5428H15.5353V25.6309C15.5353 25.9392 15.4275 26.1978 15.2118 26.4067C14.9962 26.6156 14.7297 26.7197 14.4123 26.719C14.0948 26.7183 13.8283 26.6138 13.6127 26.4056C13.397 26.1974 13.2892 25.9392 13.2892 25.6309V24.5428ZM14.4123 18.0141C15.4978 18.0141 16.4243 17.6424 17.1917 16.8988C17.9592 16.1553 18.3429 15.2576 18.3429 14.2058C18.3429 13.1539 17.9592 12.2563 17.1917 11.5127C16.4243 10.7692 15.4978 10.3974 14.4123 10.3974C13.3267 10.3974 12.4002 10.7692 11.6328 11.5127C10.8654 12.2563 10.4817 13.1539 10.4817 14.2058C10.4817 15.2576 10.8654 16.1553 11.6328 16.8988C12.4002 17.6424 13.3267 18.0141 14.4123 18.0141Z" fill="#707070"/>
<path id="Vector_3" d="M5.99932 5.85068L4.90074 4.98061C4.58947 4.73409 4.24507 4.63287 3.86753 4.67696C3.48999 4.72104 3.17766 4.89779 2.93056 5.20721C2.68346 5.51662 2.5817 5.86013 2.62528 6.23775C2.66887 6.61537 2.84629 6.92743 3.15756 7.17396L4.25614 8.04403C4.56477 8.29086 4.90888 8.39244 5.28847 8.34878C5.66806 8.30512 5.98067 8.12801 6.22631 7.81744C6.47194 7.50686 6.57334 7.16306 6.53049 6.78602C6.48764 6.40899 6.31058 6.09721 5.99932 5.85068Z" fill="#707070"/>
<path id="Vector_4" d="M2.76561 14.6199L1.38279 14.8527C0.990988 14.9186 0.685178 15.1064 0.46536 15.4159C0.245541 15.7255 0.168119 16.0755 0.233096 16.4658C0.298073 16.8562 0.485694 17.1615 0.795957 17.3819C1.10622 17.6022 1.45725 17.6794 1.84905 17.6135L3.23187 17.3808C3.62214 17.317 3.92803 17.1297 4.14953 16.8189C4.37104 16.5081 4.44839 16.1577 4.38156 15.7676C4.31474 15.3776 4.12666 15.0723 3.81732 14.8518C3.50798 14.6313 3.15741 14.554 2.76561 14.6199Z" fill="#707070"/>
<path id="Vector_5" d="M5.8493 21.6544L4.98352 22.7556C4.73821 23.0676 4.63864 23.412 4.68479 23.7886C4.73094 24.1652 4.90964 24.4761 5.22089 24.7211C5.53214 24.9662 5.87679 25.0659 6.25483 25.0204C6.63286 24.9749 6.94454 24.7962 7.18984 24.4842L8.05563 23.3829C8.30125 23.0735 8.40119 22.7295 8.35546 22.3508C8.30972 21.9721 8.13065 21.661 7.81825 21.4174C7.50584 21.1738 7.16091 21.0744 6.78345 21.1192C6.40599 21.1639 6.09461 21.3423 5.8493 21.6544Z" fill="#707070"/>
<path id="Vector_6" d="M15.1764 2.83685L15.195 1.43707C15.2003 1.04047 15.0702 0.706465 14.8045 0.435064C14.5388 0.163662 14.2078 0.0248601 13.8115 0.0186603C13.4152 0.0124604 13.0806 0.141951 12.8078 0.407131C12.535 0.672311 12.3959 1.0032 12.3906 1.39981L12.372 2.79959C12.3648 3.1943 12.4945 3.52829 12.7611 3.80157C13.0277 4.07485 13.3591 4.21366 13.7555 4.218C14.1519 4.22233 14.4865 4.09237 14.7593 3.82813C15.032 3.56388 15.1711 3.23345 15.1764 2.83685Z" fill="#707070"/>
<path id="Vector_7" d="M24.5291 22.2932L23.4305 21.4231C23.1193 21.1766 22.7749 21.0754 22.3973 21.1195C22.0198 21.1635 21.7075 21.3403 21.4603 21.6497C21.2132 21.9591 21.1115 22.3026 21.1551 22.6803C21.1987 23.0579 21.3761 23.3699 21.6873 23.6165L22.7859 24.4865C23.0946 24.7334 23.4387 24.8349 23.8183 24.7913C24.1978 24.7476 24.5105 24.5705 24.7561 24.2599C25.0017 23.9494 25.1031 23.6056 25.0603 23.2285C25.0174 22.8515 24.8404 22.5397 24.5291 22.2932Z" fill="#707070"/>
<path id="Vector_8" d="M27.5111 12.3503L26.1089 12.3688C25.7116 12.374 25.3806 12.5128 25.1159 12.7851C24.8511 13.0574 24.7209 13.3913 24.7252 13.787C24.7295 14.1827 24.868 14.5132 25.1408 14.7784C25.4136 15.0436 25.7486 15.1736 26.1459 15.1683L27.5481 15.1498C27.9436 15.1465 28.2746 15.0082 28.5412 14.7349C28.8078 14.4617 28.938 14.1272 28.9318 13.7316C28.9257 13.3359 28.7867 13.0055 28.5148 12.7402C28.243 12.475 27.9084 12.345 27.5111 12.3503Z" fill="#707070"/>
</g>
</svg>
