<svg width="30" height="27" viewBox="0 0 30 27" fill="none" xmlns="http://www.w3.org/2000/svg">
<g id="Group 35">
<path id="Vector" d="M26.7656 3.21135V7.8358C26.7656 8.16337 26.6544 8.43814 26.432 8.66011C26.2097 8.88208 25.9348 8.99268 25.6074 8.99191C25.2801 8.99114 25.0052 8.88016 24.7829 8.65895C24.5605 8.43775 24.4493 8.16337 24.4493 7.8358V6.01492L19.8458 10.5816C20.2125 11.1211 20.4924 11.6945 20.6854 12.3019C20.8784 12.9092 20.9749 13.5401 20.9749 14.1944C20.9749 15.9671 20.3573 17.4701 19.122 18.7033C17.8866 19.9364 16.3811 20.553 14.6053 20.553C12.8295 20.553 11.3239 19.9364 10.0886 18.7033C8.85326 17.4701 8.2356 15.9671 8.2356 14.1944C8.2356 12.4217 8.85326 10.9188 10.0886 9.68558C11.3239 8.45239 12.8295 7.8358 14.6053 7.8358C15.2422 7.8358 15.8696 7.92713 16.4872 8.1098C17.1049 8.29247 17.6743 8.57687 18.1955 8.96301L22.799 4.36746H20.9749C20.6468 4.36746 20.372 4.25648 20.1504 4.0345C19.9288 3.81253 19.8176 3.53814 19.8168 3.21135C19.8161 2.88455 19.9272 2.61017 20.1504 2.3882C20.3735 2.16622 20.6484 2.05524 20.9749 2.05524H25.6074C25.9356 2.05524 26.2108 2.16622 26.4332 2.3882C26.6555 2.61017 26.7663 2.88455 26.7656 3.21135ZM14.6053 10.148C13.4858 10.148 12.5303 10.543 11.7389 11.333C10.9475 12.1231 10.5518 13.0768 10.5518 14.1944C10.5518 15.312 10.9475 16.2658 11.7389 17.0558C12.5303 17.8458 13.4858 18.2408 14.6053 18.2408C15.7248 18.2408 16.6802 17.8458 17.4716 17.0558C18.263 16.2658 18.6587 15.312 18.6587 14.1944C18.6587 13.0768 18.263 12.1231 17.4716 11.333C16.6802 10.543 15.7248 10.148 14.6053 10.148Z" fill="#707070"/>
<path id="Vector_2" d="M5.99932 5.85068L4.90074 4.98061C4.58947 4.73409 4.24507 4.63287 3.86753 4.67696C3.48999 4.72104 3.17766 4.89779 2.93056 5.20721C2.68346 5.51662 2.5817 5.86013 2.62528 6.23775C2.66887 6.61537 2.84629 6.92743 3.15756 7.17396L4.25614 8.04403C4.56477 8.29086 4.90888 8.39244 5.28847 8.34878C5.66806 8.30512 5.98067 8.12801 6.22631 7.81744C6.47194 7.50686 6.57334 7.16306 6.53049 6.78602C6.48764 6.40899 6.31058 6.09721 5.99932 5.85068Z" fill="#707070"/>
<path id="Vector_3" d="M2.76561 14.6199L1.38279 14.8526C0.990988 14.9185 0.685178 15.1063 0.46536 15.4159C0.245541 15.7254 0.168119 16.0754 0.233096 16.4658C0.298073 16.8561 0.485694 17.1615 0.795957 17.3818C1.10622 17.6022 1.45725 17.6794 1.84905 17.6134L3.23187 17.3807C3.62214 17.3169 3.92803 17.1296 4.14953 16.8188C4.37104 16.508 4.44839 16.1576 4.38156 15.7676C4.31474 15.3775 4.12666 15.0722 3.81732 14.8517C3.50798 14.6312 3.15741 14.5539 2.76561 14.6199Z" fill="#707070"/>
<path id="Vector_4" d="M5.8493 21.6543L4.98352 22.7555C4.73821 23.0676 4.63864 23.4119 4.68479 23.7885C4.73094 24.1652 4.90964 24.476 5.22089 24.7211C5.53214 24.9661 5.87679 25.0659 6.25483 25.0204C6.63286 24.9749 6.94454 24.7961 7.18984 24.4841L8.05563 23.3829C8.30125 23.0735 8.40119 22.7294 8.35546 22.3507C8.30972 21.972 8.13065 21.6609 7.81825 21.4173C7.50584 21.1738 7.16091 21.0744 6.78345 21.1191C6.40599 21.1639 6.09461 21.3423 5.8493 21.6543Z" fill="#707070"/>
<path id="Vector_5" d="M21.4557 23.3841L22.3225 24.4845C22.5681 24.7963 22.8797 24.9744 23.2572 25.0188C23.6347 25.0632 23.9795 24.9635 24.2917 24.7196C24.6039 24.4758 24.7826 24.1651 24.8278 23.7877C24.873 23.4103 24.7728 23.0657 24.5272 22.7539L23.6604 21.6535C23.4174 21.342 23.1062 21.1636 22.7268 21.1183C22.3474 21.073 22.0022 21.173 21.6912 21.4184C21.3802 21.6637 21.2018 21.9747 21.156 22.3514C21.1102 22.7281 21.2101 23.0723 21.4557 23.3841Z" fill="#707070"/>
<path id="Vector_6" d="M26.1065 15.2119L27.5062 15.2974C27.9028 15.3216 28.2432 15.2077 28.5275 14.9558C28.8117 14.7039 28.9664 14.3805 28.9916 13.9855C29.0167 13.5906 28.9031 13.2508 28.6508 12.9661C28.3985 12.6815 28.0741 12.527 27.6775 12.5028L26.2778 12.4173C25.8832 12.3913 25.5428 12.5047 25.2566 12.7575C24.9704 13.0102 24.8157 13.3341 24.7924 13.7291C24.7691 14.1241 24.8832 14.464 25.1346 14.7486C25.3859 15.0332 25.7099 15.1877 26.1065 15.2119Z" fill="#707070"/>
<path id="Vector_7" d="M15.1764 2.83685L15.195 1.43707C15.2003 1.04047 15.0702 0.706465 14.8045 0.435064C14.5388 0.163662 14.2078 0.0248601 13.8115 0.0186603C13.4152 0.0124604 13.0806 0.141951 12.8078 0.407131C12.535 0.672311 12.3959 1.0032 12.3906 1.39981L12.372 2.79959C12.3648 3.1943 12.4945 3.52829 12.7611 3.80157C13.0277 4.07485 13.3591 4.21366 13.7555 4.218C14.1519 4.22233 14.4865 4.09237 14.7593 3.82813C15.032 3.56388 15.1711 3.23345 15.1764 2.83685Z" fill="#707070"/>
<path id="Vector_8" d="M15.1764 25.4452L15.195 24.0455C15.2003 23.6489 15.0702 23.3149 14.8045 23.0435C14.5388 22.7721 14.2078 22.6333 13.8115 22.6271C13.4152 22.6209 13.0806 22.7503 12.8078 23.0155C12.535 23.2807 12.3959 23.6116 12.3906 24.0082L12.372 25.408C12.3648 25.8027 12.4945 26.1367 12.7611 26.41C13.0277 26.6833 13.3591 26.8221 13.7555 26.8264C14.1519 26.8307 14.4865 26.7008 14.7593 26.4365C15.032 26.1723 15.1711 25.8419 15.1764 25.4452Z" fill="#707070"/>
</g>
</svg>
