<svg width="19" height="25" viewBox="0 0 19 25" fill="none" xmlns="http://www.w3.org/2000/svg">
<g id="Group 34">
<path id="Vector" d="M18.53 1.15611V5.78056C18.53 6.10813 18.4188 6.3829 18.1964 6.60487C17.9741 6.82685 17.6992 6.93745 17.3718 6.93668C17.0445 6.93591 16.7696 6.82492 16.5473 6.60372C16.3249 6.38251 16.2137 6.10813 16.2137 5.78056V3.95969L11.6102 8.52633C11.9769 9.06585 12.2568 9.63928 12.4498 10.2466C12.6428 10.854 12.7394 11.4848 12.7394 12.1392C12.7394 13.9119 12.1217 15.4148 10.8864 16.648C9.65103 17.8812 8.14547 18.4978 6.36968 18.4978C4.59389 18.4978 3.08833 17.8812 1.853 16.648C0.617665 15.4148 0 13.9119 0 12.1392C0 10.3665 0.617665 8.86353 1.853 7.63034C3.08833 6.39716 4.59389 5.78056 6.36968 5.78056C7.00665 5.78056 7.63396 5.8719 8.25163 6.05456C8.86929 6.23723 9.4387 6.52163 9.95986 6.90777L14.5634 2.31223H12.7394C12.4112 2.31223 12.1364 2.20124 11.9148 1.97926C11.6932 1.75729 11.582 1.48291 11.5812 1.15611C11.5805 0.829318 11.6916 0.554934 11.9148 0.332961C12.1379 0.110987 12.4128 0 12.7394 0H17.3718C17.7 0 17.9752 0.110987 18.1976 0.332961C18.4199 0.554934 18.5307 0.829318 18.53 1.15611ZM6.36968 8.09279C5.25016 8.09279 4.29471 8.48779 3.50332 9.2778C2.71194 10.0678 2.31625 11.0216 2.31625 12.1392C2.31625 13.2568 2.71194 14.2106 3.50332 15.0006C4.29471 15.7906 5.25016 16.1856 6.36968 16.1856C7.4892 16.1856 8.44465 15.7906 9.23603 15.0006C10.0274 14.2106 10.4231 13.2568 10.4231 12.1392C10.4231 11.0216 10.0274 10.0678 9.23603 9.2778C8.44465 8.48779 7.4892 8.09279 6.36968 8.09279Z" fill="#707070"/>
<path id="Vector_2" d="M5.05363 22.4875H3.9306C3.61241 22.4875 3.34588 22.383 3.131 22.1741C2.91613 21.9652 2.80832 21.7069 2.80757 21.3994C2.80682 21.0918 2.91463 20.8336 3.131 20.6246C3.34737 20.4157 3.61391 20.3113 3.9306 20.3113H5.05363V18.0262C3.57497 17.7724 2.36285 17.0876 1.41726 15.9719C0.471673 14.8562 -0.000747797 13.5643 8.88471e-07 12.0961C8.88471e-07 10.4458 0.603816 9.04502 1.81145 7.89381C3.01908 6.74259 4.47415 6.16662 6.17666 6.16589C7.87917 6.16517 9.33461 6.74114 10.543 7.89381C11.7514 9.04647 12.3548 10.4472 12.3533 12.0961C12.3533 13.565 11.8805 14.8573 10.9349 15.973C9.98934 17.0887 8.77759 17.7731 7.29969 18.0262V20.3113H8.42271C8.7409 20.3113 9.00781 20.4157 9.22343 20.6246C9.43905 20.8336 9.54649 21.0918 9.54574 21.3994C9.54499 21.7069 9.43718 21.9656 9.22231 22.1752C9.00744 22.3848 8.7409 22.4889 8.42271 22.4875H7.29969V23.5756C7.29969 23.8839 7.19187 24.1425 6.97625 24.3514C6.76063 24.5603 6.4941 24.6644 6.17666 24.6637C5.85921 24.663 5.59268 24.5585 5.37706 24.3503C5.16144 24.1421 5.05363 23.8839 5.05363 23.5756V22.4875ZM6.17666 15.9588C7.26225 15.9588 8.18875 15.5871 8.95615 14.8435C9.72355 14.1 10.1073 13.2023 10.1073 12.1505C10.1073 11.0986 9.72355 10.201 8.95615 9.45741C8.18875 8.71388 7.26225 8.34211 6.17666 8.34211C5.09106 8.34211 4.16456 8.71388 3.39716 9.45741C2.62976 10.201 2.24606 11.0986 2.24606 12.1505C2.24606 13.2023 2.62976 14.1 3.39716 14.8435C4.16456 15.5871 5.09106 15.9588 6.17666 15.9588Z" fill="#707070"/>
</g>
</svg>
