<svg width="30" height="27" viewBox="0 0 30 27" fill="none" xmlns="http://www.w3.org/2000/svg">
<g id="Group 33">
<path id="Vector" d="M13.2892 24.5427H12.1662C11.848 24.5427 11.5815 24.4383 11.3666 24.2293C11.1517 24.0204 11.0439 23.7622 11.0432 23.4546C11.0424 23.147 11.1502 22.8888 11.3666 22.6799C11.583 22.471 11.8495 22.3665 12.1662 22.3665H13.2892V20.0815C11.8106 19.8276 10.5984 19.1428 9.65286 18.0271C8.70727 16.9115 8.23485 15.6195 8.2356 14.1513C8.2356 12.501 8.83941 11.1003 10.047 9.94904C11.2547 8.79783 12.7097 8.22186 14.4123 8.22113C16.1148 8.22041 17.5702 8.79638 18.7786 9.94904C19.987 11.1017 20.5904 12.5025 20.5889 14.1513C20.5889 15.6203 20.1161 16.9126 19.1705 18.0282C18.2249 19.1439 17.0132 19.8283 15.5353 20.0815V22.3665H16.6583C16.9765 22.3665 17.2434 22.471 17.459 22.6799C17.6747 22.8888 17.7821 23.147 17.7813 23.4546C17.7806 23.7622 17.6728 24.0208 17.4579 24.2304C17.243 24.4401 16.9765 24.5442 16.6583 24.5427H15.5353V25.6308C15.5353 25.9391 15.4275 26.1977 15.2118 26.4066C14.9962 26.6156 14.7297 26.7197 14.4123 26.7189C14.0948 26.7182 13.8283 26.6137 13.6127 26.4056C13.397 26.1974 13.2892 25.9391 13.2892 25.6308V24.5427ZM14.4123 18.0141C15.4978 18.0141 16.4243 17.6423 17.1917 16.8988C17.9592 16.1552 18.3429 15.2575 18.3429 14.2057C18.3429 13.1539 17.9592 12.2562 17.1917 11.5127C16.4243 10.7691 15.4978 10.3973 14.4123 10.3973C13.3267 10.3973 12.4002 10.7691 11.6328 11.5127C10.8654 12.2562 10.4817 13.1539 10.4817 14.2057C10.4817 15.2575 10.8654 16.1552 11.6328 16.8988C12.4002 17.6423 13.3267 18.0141 14.4123 18.0141Z" fill="#707070"/>
<path id="Vector_2" d="M5.99932 5.85068L4.90074 4.98061C4.58947 4.73409 4.24507 4.63287 3.86753 4.67696C3.48999 4.72104 3.17766 4.89779 2.93056 5.20721C2.68346 5.51662 2.5817 5.86013 2.62528 6.23775C2.66887 6.61537 2.84629 6.92743 3.15756 7.17396L4.25614 8.04403C4.56477 8.29086 4.90888 8.39244 5.28847 8.34878C5.66806 8.30512 5.98067 8.12801 6.22631 7.81744C6.47194 7.50686 6.57334 7.16306 6.53049 6.78602C6.48764 6.40899 6.31058 6.09721 5.99932 5.85068Z" fill="#707070"/>
<path id="Vector_3" d="M2.76561 14.6199L1.38279 14.8526C0.990988 14.9185 0.685178 15.1063 0.46536 15.4159C0.245541 15.7254 0.168119 16.0754 0.233096 16.4658C0.298073 16.8561 0.485694 17.1615 0.795957 17.3818C1.10622 17.6022 1.45725 17.6794 1.84905 17.6134L3.23187 17.3807C3.62214 17.3169 3.92803 17.1296 4.14953 16.8188C4.37104 16.508 4.44839 16.1576 4.38156 15.7676C4.31474 15.3775 4.12666 15.0722 3.81732 14.8517C3.50798 14.6312 3.15741 14.5539 2.76561 14.6199Z" fill="#707070"/>
<path id="Vector_4" d="M5.8493 21.6543L4.98352 22.7555C4.73821 23.0676 4.63864 23.4119 4.68479 23.7885C4.73094 24.1652 4.90964 24.476 5.22089 24.7211C5.53214 24.9661 5.87679 25.0659 6.25483 25.0204C6.63286 24.9749 6.94454 24.7961 7.18984 24.4841L8.05563 23.3829C8.30125 23.0735 8.40119 22.7294 8.35546 22.3507C8.30972 21.972 8.13065 21.6609 7.81825 21.4173C7.50584 21.1738 7.16091 21.0744 6.78345 21.1191C6.40599 21.1639 6.09461 21.3423 5.8493 21.6543Z" fill="#707070"/>
<path id="Vector_5" d="M21.4557 23.3841L22.3225 24.4845C22.5681 24.7963 22.8797 24.9744 23.2572 25.0188C23.6347 25.0632 23.9795 24.9635 24.2917 24.7196C24.6039 24.4758 24.7826 24.1651 24.8278 23.7877C24.873 23.4103 24.7728 23.0657 24.5272 22.7539L23.6604 21.6535C23.4174 21.342 23.1062 21.1636 22.7268 21.1183C22.3474 21.073 22.0022 21.173 21.6912 21.4184C21.3802 21.6637 21.2018 21.9747 21.156 22.3514C21.1102 22.7281 21.2101 23.0723 21.4557 23.3841Z" fill="#707070"/>
<path id="Vector_6" d="M26.1065 15.2119L27.5062 15.2974C27.9028 15.3216 28.2432 15.2077 28.5275 14.9558C28.8117 14.7039 28.9664 14.3805 28.9916 13.9855C29.0167 13.5906 28.9031 13.2508 28.6508 12.9661C28.3985 12.6815 28.0741 12.527 27.6775 12.5028L26.2778 12.4173C25.8832 12.3913 25.5428 12.5047 25.2566 12.7575C24.9704 13.0102 24.8157 13.3341 24.7924 13.7291C24.7691 14.1241 24.8832 14.464 25.1346 14.7486C25.3859 15.0332 25.7099 15.1877 26.1065 15.2119Z" fill="#707070"/>
<path id="Vector_7" d="M15.1764 2.83685L15.195 1.43707C15.2003 1.04047 15.0702 0.706465 14.8045 0.435064C14.5388 0.163662 14.2078 0.0248601 13.8115 0.0186603C13.4152 0.0124604 13.0806 0.141951 12.8078 0.407131C12.535 0.672311 12.3959 1.0032 12.3906 1.39981L12.372 2.79959C12.3648 3.1943 12.4945 3.52829 12.7611 3.80157C13.0277 4.07485 13.3591 4.21366 13.7555 4.218C14.1519 4.22233 14.4865 4.09237 14.7593 3.82813C15.032 3.56388 15.1711 3.23345 15.1764 2.83685Z" fill="#707070"/>
<path id="Vector_8" d="M23.661 8.04169L24.5267 6.94045C24.772 6.62843 24.8716 6.28409 24.8255 5.90745C24.7793 5.5308 24.6006 5.21996 24.2894 4.97492C23.9781 4.72988 23.6335 4.63011 23.2554 4.67561C22.8774 4.72111 22.5657 4.89987 22.3204 5.21189L21.4546 6.31313C21.209 6.62253 21.1091 6.96657 21.1548 7.34527C21.2005 7.72396 21.3796 8.03509 21.692 8.27866C22.0044 8.52223 22.3493 8.62163 22.7268 8.57687C23.1043 8.5321 23.4156 8.35371 23.661 8.04169Z" fill="#707070"/>
</g>
</svg>
