<svg width="31" height="49" viewBox="0 0 31 49" fill="none" xmlns="http://www.w3.org/2000/svg">
<path d="M11.3582 7.30005V7.30005C11.3582 8.38421 10.4793 9.26309 9.39517 9.26309H7.1791C4.87105 9.26309 3 11.1341 3 13.4422V41C3 43.7615 5.23858 46 8 46H23C25.7614 46 28 43.7615 28 41V13.4049C28 11.1174 26.1457 9.26309 23.8582 9.26309H21.6795C20.5953 9.26309 19.7164 8.38421 19.7164 7.30005V7.30005" stroke="#398CCB" stroke-linejoin="round"/>
<rect x="9.98853" y="3.5" width="11.2137" height="2.92609" fill="#398CCB" stroke="#398CCB"/>
<path d="M7.16663 30.2125L8.047 29.7197C8.50676 29.4623 9.06723 29.4623 9.52699 29.7197V29.7197C10.0602 30.0182 10.7205 29.9671 11.2015 29.5901L11.5648 29.3054" stroke="#398CCB" stroke-linecap="round"/>
<path d="M15.7192 36.7215L15.9438 35.753C16.0608 35.2485 16.4416 34.842 16.9447 34.6846V34.6846C17.5274 34.5023 17.9377 33.9896 17.9792 33.3918L18.0109 32.9338" stroke="#398CCB" stroke-linecap="round"/>
<path d="M8.09259 35.2191L8.97962 35.7C9.44122 35.9502 9.73428 36.4225 9.74856 36.9392V36.9392C9.76509 37.5374 10.154 38.0671 10.7271 38.2719L11.1684 38.4297" stroke="#398CCB" stroke-linecap="round"/>
<path d="M9.14339 43.0309L9.9479 42.4263C10.368 42.1105 10.9234 42.0365 11.4144 42.2308V42.2308C11.9837 42.4561 12.6311 42.3183 13.0557 41.8814L13.3765 41.5512" stroke="#398CCB" stroke-linecap="round"/>
<path d="M24.5683 38.1368L23.664 38.5862C23.1918 38.8209 22.632 38.7936 22.1859 38.5142V38.5142C21.6685 38.1901 21.0064 38.209 20.5069 38.5621L20.1296 38.8288" stroke="#398CCB" stroke-linecap="round"/>
<path d="M21.0555 27.9782L21.9524 28.4413C22.4191 28.6823 22.7219 29.1486 22.7469 29.6649V29.6649C22.7758 30.2628 23.1756 30.7845 23.753 30.9779L24.1974 31.1268" stroke="#398CCB" stroke-linecap="round"/>
<line x1="5.31482" y1="25.1771" x2="25.6852" y2="25.1771" stroke="#398CCB"/>
</svg>
