<svg width="9" height="9" viewBox="0 0 9 9" fill="none" xmlns="http://www.w3.org/2000/svg">
<path id="Vector" d="M9 0.5625V2.8125C9 2.97187 8.946 3.10556 8.838 3.21356C8.73 3.32156 8.5965 3.37537 8.4375 3.375C8.2785 3.37463 8.145 3.32062 8.037 3.213C7.929 3.10537 7.875 2.97187 7.875 2.8125V1.92656L5.63906 4.14844C5.81719 4.41094 5.95312 4.68994 6.04687 4.98544C6.14062 5.28094 6.1875 5.58788 6.1875 5.90625C6.1875 6.76875 5.8875 7.5 5.2875 8.1C4.6875 8.7 3.95625 9 3.09375 9C2.23125 9 1.5 8.7 0.9 8.1C0.3 7.5 0 6.76875 0 5.90625C0 5.04375 0.3 4.3125 0.9 3.7125C1.5 3.1125 2.23125 2.8125 3.09375 2.8125C3.40312 2.8125 3.70781 2.85694 4.00781 2.94581C4.30781 3.03469 4.58437 3.17306 4.8375 3.36094L7.07344 1.125H6.1875C6.02812 1.125 5.89462 1.071 5.787 0.963C5.67937 0.855 5.62537 0.7215 5.625 0.5625C5.62462 0.4035 5.67862 0.27 5.787 0.162C5.89537 0.0540001 6.02887 0 6.1875 0H8.4375C8.59687 0 8.73056 0.0540001 8.83856 0.162C8.94656 0.27 9.00037 0.4035 9 0.5625ZM3.09375 3.9375C2.55 3.9375 2.08594 4.12969 1.70156 4.51406C1.31719 4.89844 1.125 5.3625 1.125 5.90625C1.125 6.45 1.31719 6.91406 1.70156 7.29844C2.08594 7.68281 2.55 7.875 3.09375 7.875C3.6375 7.875 4.10156 7.68281 4.48594 7.29844C4.87031 6.91406 5.0625 6.45 5.0625 5.90625C5.0625 5.3625 4.87031 4.89844 4.48594 4.51406C4.10156 4.12969 3.6375 3.9375 3.09375 3.9375Z" fill="#707070"/>
</svg>
