<svg width="9" height="12" viewBox="0 0 9 12" fill="none" xmlns="http://www.w3.org/2000/svg">
<g id="Group 34">
<path id="Vector" d="M9 0.5625V2.8125C9 2.97187 8.946 3.10556 8.838 3.21356C8.73 3.32156 8.5965 3.37537 8.4375 3.375C8.2785 3.37463 8.145 3.32062 8.037 3.213C7.929 3.10537 7.875 2.97187 7.875 2.8125V1.92656L5.63906 4.14844C5.81719 4.41094 5.95312 4.68994 6.04687 4.98544C6.14062 5.28094 6.1875 5.58788 6.1875 5.90625C6.1875 6.76875 5.8875 7.5 5.2875 8.1C4.6875 8.7 3.95625 9 3.09375 9C2.23125 9 1.5 8.7 0.9 8.1C0.3 7.5 0 6.76875 0 5.90625C0 5.04375 0.3 4.3125 0.9 3.7125C1.5 3.1125 2.23125 2.8125 3.09375 2.8125C3.40312 2.8125 3.70781 2.85694 4.00781 2.94581C4.30781 3.03469 4.58437 3.17306 4.8375 3.36094L7.07344 1.125H6.1875C6.02812 1.125 5.89462 1.071 5.787 0.963C5.67937 0.855 5.62537 0.7215 5.625 0.5625C5.62462 0.4035 5.67862 0.27 5.787 0.162C5.89537 0.0540001 6.02887 0 6.1875 0H8.4375C8.59687 0 8.73056 0.0540001 8.83856 0.162C8.94656 0.27 9.00037 0.4035 9 0.5625ZM3.09375 3.9375C2.55 3.9375 2.08594 4.12969 1.70156 4.51406C1.31719 4.89844 1.125 5.3625 1.125 5.90625C1.125 6.45 1.31719 6.91406 1.70156 7.29844C2.08594 7.68281 2.55 7.875 3.09375 7.875C3.6375 7.875 4.10156 7.68281 4.48594 7.29844C4.87031 6.91406 5.0625 6.45 5.0625 5.90625C5.0625 5.3625 4.87031 4.89844 4.48594 4.51406C4.10156 4.12969 3.6375 3.9375 3.09375 3.9375Z" fill="#707070"/>
<path id="Vector_2" d="M2.45455 10.9412H1.90909C1.75455 10.9412 1.62509 10.8904 1.52073 10.7887C1.41636 10.6871 1.364 10.5614 1.36364 10.4118C1.36327 10.2621 1.41564 10.1365 1.52073 10.0348C1.62582 9.93318 1.75527 9.88235 1.90909 9.88235H2.45455V8.77059C1.73636 8.64706 1.14764 8.31388 0.688364 7.77106C0.229091 7.22824 -0.000363205 6.59965 4.3153e-07 5.88529C4.3153e-07 5.08235 0.293273 4.40082 0.879818 3.84071C1.46636 3.28059 2.17309 3.00035 3 3C3.82691 2.99965 4.53382 3.27988 5.12073 3.84071C5.70763 4.40153 6.00073 5.08306 6 5.88529C6 6.6 5.77036 7.22876 5.31109 7.77159C4.85182 8.31441 4.26327 8.64741 3.54545 8.77059V9.88235H4.09091C4.24545 9.88235 4.37509 9.93318 4.47982 10.0348C4.58454 10.1365 4.63673 10.2621 4.63636 10.4118C4.636 10.5614 4.58364 10.6872 4.47927 10.7892C4.37491 10.8912 4.24545 10.9419 4.09091 10.9412H3.54545V11.4706C3.54545 11.6206 3.49309 11.7464 3.38836 11.8481C3.28364 11.9497 3.15418 12.0004 3 12C2.84582 11.9996 2.71636 11.9488 2.61164 11.8475C2.50691 11.7462 2.45455 11.6206 2.45455 11.4706V10.9412ZM3 7.76471C3.52727 7.76471 3.97727 7.58382 4.35 7.22206C4.72273 6.86029 4.90909 6.42353 4.90909 5.91176C4.90909 5.4 4.72273 4.96324 4.35 4.60147C3.97727 4.23971 3.52727 4.05882 3 4.05882C2.47273 4.05882 2.02273 4.23971 1.65 4.60147C1.27727 4.96324 1.09091 5.4 1.09091 5.91176C1.09091 6.42353 1.27727 6.86029 1.65 7.22206C2.02273 7.58382 2.47273 7.76471 3 7.76471Z" fill="#707070"/>
</g>
</svg>
