<svg width="15" height="14" viewBox="0 0 15 14" fill="none" xmlns="http://www.w3.org/2000/svg">
<g id="Group 35">
<path id="Vector" d="M13 1.5625V3.8125C13 3.97187 12.946 4.10556 12.838 4.21356C12.73 4.32156 12.5965 4.37537 12.4375 4.375C12.2785 4.37463 12.145 4.32062 12.037 4.213C11.929 4.10537 11.875 3.97187 11.875 3.8125V2.92656L9.63906 5.14844C9.81719 5.41094 9.95312 5.68994 10.0469 5.98544C10.1406 6.28094 10.1875 6.58788 10.1875 6.90625C10.1875 7.76875 9.8875 8.5 9.2875 9.1C8.6875 9.7 7.95625 10 7.09375 10C6.23125 10 5.5 9.7 4.9 9.1C4.3 8.5 4 7.76875 4 6.90625C4 6.04375 4.3 5.3125 4.9 4.7125C5.5 4.1125 6.23125 3.8125 7.09375 3.8125C7.40312 3.8125 7.70781 3.85694 8.00781 3.94581C8.30781 4.03469 8.58437 4.17306 8.8375 4.36094L11.0734 2.125H10.1875C10.0281 2.125 9.89462 2.071 9.787 1.963C9.67937 1.855 9.62537 1.7215 9.625 1.5625C9.62462 1.4035 9.67862 1.27 9.787 1.162C9.89537 1.054 10.0289 1 10.1875 1H12.4375C12.5969 1 12.7306 1.054 12.8386 1.162C12.9466 1.27 13.0004 1.4035 13 1.5625ZM7.09375 4.9375C6.55 4.9375 6.08594 5.12969 5.70156 5.51406C5.31719 5.89844 5.125 6.3625 5.125 6.90625C5.125 7.45 5.31719 7.91406 5.70156 8.29844C6.08594 8.68281 6.55 8.875 7.09375 8.875C7.6375 8.875 8.10156 8.68281 8.48594 8.29844C8.87031 7.91406 9.0625 7.45 9.0625 6.90625C9.0625 6.3625 8.87031 5.89844 8.48594 5.51406C8.10156 5.12969 7.6375 4.9375 7.09375 4.9375Z" fill="#707070"/>
<path id="Vector_2" d="M2.91381 2.84663L2.38023 2.4233C2.22904 2.30335 2.06177 2.25411 1.8784 2.27556C1.69503 2.29701 1.54333 2.383 1.42331 2.53355C1.3033 2.68409 1.25387 2.85122 1.27504 3.03495C1.29621 3.21868 1.38238 3.37051 1.53356 3.49046L2.06714 3.91379C2.21705 4.03388 2.38418 4.0833 2.56855 4.06206C2.75291 4.04082 2.90475 3.95465 3.02405 3.80354C3.14336 3.65243 3.19261 3.48515 3.1718 3.30171C3.15098 3.11826 3.06499 2.96657 2.91381 2.84663Z" fill="#707070"/>
<path id="Vector_3" d="M1.34325 7.11323L0.671618 7.22646C0.481321 7.25855 0.332789 7.3499 0.226023 7.50052C0.119257 7.65114 0.0816539 7.82141 0.113213 8.01133C0.144772 8.20126 0.235899 8.34983 0.386594 8.45704C0.537289 8.56425 0.707785 8.60182 0.898082 8.56974L1.56972 8.45651C1.75927 8.42547 1.90784 8.33434 2.01543 8.18312C2.12301 8.03191 2.16058 7.86141 2.12812 7.67164C2.09567 7.48186 2.00432 7.33333 1.85407 7.22604C1.70382 7.11875 1.53355 7.08115 1.34325 7.11323Z" fill="#707070"/>
<path id="Vector_4" d="M2.84102 10.5358L2.42051 11.0716C2.30137 11.2234 2.253 11.391 2.27542 11.5742C2.29784 11.7575 2.38463 11.9087 2.53581 12.0279C2.68698 12.1472 2.85437 12.1957 3.03799 12.1736C3.2216 12.1514 3.37298 12.0644 3.49212 11.9126L3.91263 11.3768C4.03193 11.2263 4.08048 11.0589 4.05826 10.8746C4.03605 10.6904 3.94907 10.539 3.79734 10.4205C3.64561 10.302 3.47807 10.2536 3.29474 10.2754C3.11141 10.2972 2.96017 10.384 2.84102 10.5358Z" fill="#707070"/>
<path id="Vector_5" d="M10.421 11.3774L10.842 11.9129C10.9613 12.0646 11.1127 12.1512 11.296 12.1728C11.4794 12.1944 11.6468 12.1459 11.7985 12.0272C11.9501 11.9086 12.0369 11.7574 12.0588 11.5738C12.0808 11.3902 12.0321 11.2225 11.9129 11.0708L11.4918 10.5354C11.3738 10.3839 11.2227 10.2971 11.0384 10.275C10.8541 10.253 10.6865 10.3017 10.5354 10.421C10.3843 10.5404 10.2977 10.6917 10.2755 10.875C10.2532 11.0583 10.3017 11.2257 10.421 11.3774Z" fill="#707070"/>
<path id="Vector_6" d="M12.6798 7.40127L13.3597 7.44286C13.5523 7.45464 13.7177 7.39925 13.8557 7.27667C13.9938 7.1541 14.0689 6.99674 14.0811 6.8046C14.0933 6.61246 14.0382 6.44713 13.9156 6.30862C13.7931 6.1701 13.6355 6.09495 13.4429 6.08317L12.763 6.04158C12.5714 6.02895 12.406 6.08411 12.267 6.20709C12.128 6.33006 12.0529 6.48764 12.0416 6.67984C12.0303 6.87203 12.0857 7.03738 12.2078 7.17586C12.3299 7.31435 12.4872 7.38949 12.6798 7.40127Z" fill="#707070"/>
<path id="Vector_7" d="M7.37119 1.38022L7.38025 0.699169C7.38282 0.506204 7.31959 0.343696 7.19056 0.211647C7.06154 0.0795984 6.90077 0.0120655 6.70826 0.00904878C6.51576 0.0060321 6.35325 0.0690353 6.22075 0.198057C6.08825 0.327079 6.02071 0.488073 6.01814 0.681038L6.00908 1.36209C6.00561 1.55414 6.06862 1.71664 6.19809 1.8496C6.32756 1.98257 6.48855 2.0501 6.68107 2.05221C6.87358 2.05432 7.03609 1.99109 7.16859 1.86252C7.30109 1.73395 7.36862 1.57319 7.37119 1.38022Z" fill="#707070"/>
<path id="Vector_8" d="M7.37119 12.3802L7.38025 11.6992C7.38282 11.5062 7.31959 11.3437 7.19056 11.2116C7.06154 11.0796 6.90077 11.0121 6.70826 11.009C6.51576 11.006 6.35325 11.069 6.22075 11.1981C6.08825 11.3271 6.02071 11.4881 6.01814 11.681L6.00908 12.3621C6.00561 12.5541 6.06862 12.7166 6.19809 12.8496C6.32756 12.9826 6.48855 13.0501 6.68107 13.0522C6.87358 13.0543 7.03609 12.9911 7.16859 12.8625C7.30109 12.734 7.36862 12.5732 7.37119 12.3802Z" fill="#707070"/>
</g>
</svg>
