<svg width="32" height="43" viewBox="0 0 32 43" fill="none" xmlns="http://www.w3.org/2000/svg">
<path d="M31.9739 1.9949V9.97449C31.9739 10.5397 31.782 11.0138 31.3983 11.3969C31.0147 11.7799 30.5404 11.9707 29.9755 11.9694C29.4106 11.9681 28.9364 11.7765 28.5527 11.3949C28.169 11.0132 27.9771 10.5397 27.9771 9.97449V6.83253L20.0336 14.7124C20.6664 15.6433 21.1494 16.6328 21.4824 17.6808C21.8155 18.7288 21.982 19.8173 21.982 20.9464C21.982 24.0053 20.9162 26.5986 18.7846 28.7265C16.6531 30.8544 14.0552 31.9184 10.991 31.9184C7.92686 31.9184 5.32898 30.8544 3.19739 28.7265C1.0658 26.5986 0 24.0053 0 20.9464C0 17.8876 1.0658 15.2942 3.19739 13.1663C5.32898 11.0384 7.92686 9.97449 10.991 9.97449C12.0901 9.97449 13.1726 10.1321 14.2384 10.4473C15.3042 10.7625 16.2867 11.2532 17.186 11.9195L25.1295 3.9898H21.982C21.4158 3.9898 20.9416 3.79829 20.5592 3.41527C20.1768 3.03224 19.985 2.55879 19.9837 1.9949C19.9823 1.43101 20.1742 0.957551 20.5592 0.574531C20.9442 0.19151 21.4185 0 21.982 0H29.9755C30.5417 0 31.0167 0.19151 31.4003 0.574531C31.784 0.957551 31.9752 1.43101 31.9739 1.9949ZM10.991 13.9643C9.05926 13.9643 7.41061 14.6459 6.04506 16.0091C4.67951 17.3722 3.99673 19.018 3.99673 20.9464C3.99673 22.8748 4.67951 24.5206 6.04506 25.8838C7.41061 27.247 9.05926 27.9286 10.991 27.9286C12.9228 27.9286 14.5714 27.247 15.937 25.8838C17.3025 24.5206 17.9853 22.8748 17.9853 20.9464C17.9853 19.018 17.3025 17.3722 15.937 16.0091C14.5714 14.6459 12.9228 13.9643 10.991 13.9643Z" fill="#707070"/>
<path d="M8.72015 39.1633H6.78234C6.23329 39.1633 5.77338 38.983 5.40262 38.6225C5.03185 38.262 4.84582 37.8164 4.84453 37.2857C4.84323 36.755 5.02926 36.3094 5.40262 35.9489C5.77597 35.5884 6.23587 35.4082 6.78234 35.4082H8.72015V31.4653C6.1687 31.0272 4.07715 29.8456 2.44552 27.9205C0.813882 25.9954 -0.00129034 23.7661 1.53308e-06 21.2327C1.53308e-06 18.385 1.0419 15.968 3.12569 13.9816C5.20948 11.9951 7.72024 11.0013 10.658 11C13.5957 10.9987 16.1071 11.9926 18.1922 13.9816C20.2772 15.9705 21.3185 18.3875 21.3159 21.2327C21.3159 23.7673 20.5001 25.9972 18.8685 27.9224C17.2368 29.8475 15.1459 31.0285 12.5958 31.4653V35.4082H14.5336C15.0826 35.4082 15.5432 35.5884 15.9152 35.9489C16.2873 36.3094 16.4727 36.755 16.4714 37.2857C16.4701 37.8164 16.2841 38.2627 15.9133 38.6244C15.5425 38.9861 15.0826 39.1658 14.5336 39.1633H12.5958V41.0408C12.5958 41.5728 12.4097 42.019 12.0377 42.3795C11.6656 42.74 11.2057 42.9196 10.658 42.9184C10.1102 42.9171 9.6503 42.7369 9.27824 42.3776C8.90618 42.0184 8.72015 41.5728 8.72015 41.0408V39.1633ZM10.658 27.898C12.5312 27.898 14.1299 27.2565 15.454 25.9735C16.7782 24.6905 17.4403 23.1415 17.4403 21.3265C17.4403 19.5116 16.7782 17.9626 15.454 16.6796C14.1299 15.3966 12.5312 14.7551 10.658 14.7551C8.78474 14.7551 7.18605 15.3966 5.86188 16.6796C4.53771 17.9626 3.87562 19.5116 3.87562 21.3265C3.87562 23.1415 4.53771 24.6905 5.86188 25.9735C7.18605 27.2565 8.78474 27.898 10.658 27.898Z" fill="#707070"/>
<circle cx="10.5" cy="21.5" r="4.5" fill="#707070"/>
</svg>
