<svg width="15" height="13" viewBox="0 0 15 13" fill="none" xmlns="http://www.w3.org/2000/svg">
<g id="Group 32">
<path id="Vector" d="M13 1.5625V3.8125C13 3.97187 12.946 4.10556 12.838 4.21356C12.73 4.32156 12.5965 4.37537 12.4375 4.375C12.2785 4.37463 12.145 4.32062 12.037 4.213C11.929 4.10537 11.875 3.97187 11.875 3.8125V2.92656L9.63906 5.14844C9.81719 5.41094 9.95312 5.68994 10.0469 5.98544C10.1406 6.28094 10.1875 6.58788 10.1875 6.90625C10.1875 7.76875 9.8875 8.5 9.2875 9.1C8.6875 9.7 7.95625 10 7.09375 10C6.23125 10 5.5 9.7 4.9 9.1C4.3 8.5 4 7.76875 4 6.90625C4 6.04375 4.3 5.3125 4.9 4.7125C5.5 4.1125 6.23125 3.8125 7.09375 3.8125C7.40312 3.8125 7.70781 3.85694 8.00781 3.94581C8.30781 4.03469 8.58437 4.17306 8.8375 4.36094L11.0734 2.125H10.1875C10.0281 2.125 9.89462 2.071 9.787 1.963C9.67937 1.855 9.62537 1.7215 9.625 1.5625C9.62462 1.4035 9.67862 1.27 9.787 1.162C9.89537 1.054 10.0289 1 10.1875 1H12.4375C12.5969 1 12.7306 1.054 12.8386 1.162C12.9466 1.27 13.0004 1.4035 13 1.5625ZM7.09375 4.9375C6.55 4.9375 6.08594 5.12969 5.70156 5.51406C5.31719 5.89844 5.125 6.3625 5.125 6.90625C5.125 7.45 5.31719 7.91406 5.70156 8.29844C6.08594 8.68281 6.55 8.875 7.09375 8.875C7.6375 8.875 8.10156 8.68281 8.48594 8.29844C8.87031 7.91406 9.0625 7.45 9.0625 6.90625C9.0625 6.3625 8.87031 5.89844 8.48594 5.51406C8.10156 5.12969 7.6375 4.9375 7.09375 4.9375Z" fill="#707070"/>
<path id="Vector_2" d="M6.45455 11.9412H5.90909C5.75455 11.9412 5.62509 11.8904 5.52073 11.7887C5.41636 11.6871 5.364 11.5614 5.36364 11.4118C5.36327 11.2621 5.41564 11.1365 5.52073 11.0348C5.62582 10.9332 5.75527 10.8824 5.90909 10.8824H6.45455V9.77059C5.73636 9.64706 5.14764 9.31388 4.68836 8.77106C4.22909 8.22824 3.99964 7.59965 4 6.88529C4 6.08235 4.29327 5.40082 4.87982 4.84071C5.46636 4.28059 6.17309 4.00035 7 4C7.82691 3.99965 8.53382 4.27988 9.12073 4.84071C9.70763 5.40153 10.0007 6.08306 10 6.88529C10 7.6 9.77036 8.22876 9.31109 8.77159C8.85182 9.31441 8.26327 9.64741 7.54545 9.77059V10.8824H8.09091C8.24545 10.8824 8.37509 10.9332 8.47982 11.0348C8.58454 11.1365 8.63673 11.2621 8.63636 11.4118C8.636 11.5614 8.58364 11.6872 8.47927 11.7892C8.37491 11.8912 8.24545 11.9419 8.09091 11.9412H7.54545V12.4706C7.54545 12.6206 7.49309 12.7464 7.38836 12.8481C7.28364 12.9497 7.15418 13.0004 7 13C6.84582 12.9996 6.71636 12.9488 6.61164 12.8475C6.50691 12.7462 6.45455 12.6206 6.45455 12.4706V11.9412ZM7 8.76471C7.52727 8.76471 7.97727 8.58382 8.35 8.22206C8.72273 7.86029 8.90909 7.42353 8.90909 6.91176C8.90909 6.4 8.72273 5.96324 8.35 5.60147C7.97727 5.23971 7.52727 5.05882 7 5.05882C6.47273 5.05882 6.02273 5.23971 5.65 5.60147C5.27727 5.96324 5.09091 6.4 5.09091 6.91176C5.09091 7.42353 5.27727 7.86029 5.65 8.22206C6.02273 8.58382 6.47273 8.76471 7 8.76471Z" fill="#707070"/>
<path id="Vector_3" d="M2.91381 2.84663L2.38023 2.4233C2.22904 2.30335 2.06177 2.25411 1.8784 2.27556C1.69503 2.29701 1.54333 2.383 1.42331 2.53355C1.3033 2.68409 1.25387 2.85122 1.27504 3.03495C1.29621 3.21868 1.38238 3.37051 1.53356 3.49046L2.06714 3.91379C2.21705 4.03388 2.38418 4.0833 2.56855 4.06206C2.75291 4.04082 2.90475 3.95465 3.02405 3.80354C3.14336 3.65243 3.19261 3.48515 3.1718 3.30171C3.15098 3.11826 3.06499 2.96657 2.91381 2.84663Z" fill="#707070"/>
<path id="Vector_4" d="M1.34325 7.11323L0.671618 7.22646C0.481321 7.25855 0.332789 7.3499 0.226023 7.50052C0.119257 7.65114 0.0816539 7.82141 0.113213 8.01133C0.144772 8.20126 0.235899 8.34983 0.386594 8.45704C0.537289 8.56425 0.707785 8.60182 0.898082 8.56974L1.56972 8.45651C1.75927 8.42547 1.90784 8.33434 2.01543 8.18312C2.12301 8.03191 2.16058 7.86141 2.12812 7.67164C2.09567 7.48186 2.00432 7.33333 1.85407 7.22604C1.70382 7.11875 1.53355 7.08115 1.34325 7.11323Z" fill="#707070"/>
<path id="Vector_5" d="M2.84102 10.5358L2.42051 11.0716C2.30137 11.2234 2.253 11.391 2.27542 11.5742C2.29784 11.7575 2.38463 11.9087 2.53581 12.0279C2.68698 12.1472 2.85437 12.1957 3.03799 12.1736C3.2216 12.1514 3.37298 12.0644 3.49212 11.9126L3.91263 11.3768C4.03193 11.2263 4.08048 11.0589 4.05826 10.8746C4.03605 10.6904 3.94907 10.539 3.79734 10.4205C3.64561 10.302 3.47807 10.2536 3.29474 10.2754C3.11141 10.2972 2.96017 10.384 2.84102 10.5358Z" fill="#707070"/>
<path id="Vector_6" d="M7.37119 1.38022L7.38025 0.699169C7.38282 0.506204 7.31959 0.343696 7.19056 0.211647C7.06154 0.0795984 6.90077 0.0120655 6.70826 0.00904878C6.51576 0.0060321 6.35325 0.0690353 6.22075 0.198057C6.08825 0.327079 6.02071 0.488073 6.01814 0.681038L6.00908 1.36209C6.00561 1.55414 6.06862 1.71664 6.19809 1.8496C6.32756 1.98257 6.48855 2.0501 6.68107 2.05221C6.87358 2.05432 7.03609 1.99109 7.16859 1.86252C7.30109 1.73395 7.36862 1.57319 7.37119 1.38022Z" fill="#707070"/>
<path id="Vector_7" d="M11.9138 10.8466L11.3802 10.4233C11.229 10.3034 11.0618 10.2541 10.8784 10.2756C10.695 10.297 10.5433 10.383 10.4233 10.5335C10.3033 10.6841 10.2539 10.8512 10.275 11.035C10.2962 11.2187 10.3824 11.3705 10.5336 11.4905L11.0671 11.9138C11.217 12.0339 11.3842 12.0833 11.5685 12.0621C11.7529 12.0408 11.9047 11.9546 12.0241 11.8035C12.1434 11.6524 12.1926 11.4852 12.1718 11.3017C12.151 11.1183 12.065 10.9666 11.9138 10.8466Z" fill="#707070"/>
<path id="Vector_8" d="M13.3621 6.00899L12.681 6.01799C12.4881 6.02054 12.3273 6.08805 12.1987 6.22054C12.0701 6.35302 12.0069 6.51552 12.009 6.70804C12.0111 6.90055 12.0784 7.06133 12.2108 7.19037C12.3433 7.3194 12.5061 7.38265 12.699 7.3801L13.3801 7.3711C13.5722 7.36948 13.7329 7.30219 13.8624 7.16924C13.9919 7.03629 14.0551 6.87356 14.0521 6.68106C14.0491 6.48855 13.9816 6.32778 13.8496 6.19873C13.7176 6.06969 13.5551 6.00645 13.3621 6.00899Z" fill="#707070"/>
</g>
</svg>
