<svg width="13" height="13" viewBox="0 0 13 13" fill="none" xmlns="http://www.w3.org/2000/svg">
<path id="Vector" d="M6.50541 9.55194L5.27025 10.776M5.27025 10.776L6.50541 12M5.27025 10.776H10.8284C11.0252 10.7659 11.2167 10.7094 11.3869 10.611C11.5571 10.5127 11.7011 10.3754 11.8069 10.2107C11.9127 10.046 11.9772 9.85858 11.9949 9.66413C12.0127 9.46968 11.9833 9.27383 11.9092 9.09293L11.5695 8.48092M4.36612 5.87986L3.91406 4.20784M3.91406 4.20784L2.22684 4.65583M3.91406 4.20784L1.13496 8.97788C1.04544 9.15173 0.99917 9.34428 1.00001 9.53946C1.00085 9.73464 1.04878 9.9268 1.1398 10.0999C1.23082 10.273 1.36229 10.422 1.52324 10.5345C1.68419 10.647 1.86995 10.7197 2.06503 10.7466L2.76969 10.7613M8.64469 5.87986L10.3319 6.32786M10.3319 6.32786L10.784 4.65583M10.3319 6.32786L7.55282 1.55782C7.44561 1.39407 7.30044 1.2581 7.12942 1.16126C6.9584 1.06442 6.76649 1.00952 6.5697 1.00113C6.37291 0.992745 6.17695 1.03112 5.99817 1.11306C5.81939 1.19499 5.66298 1.31811 5.54199 1.47214L5.177 2.06946" stroke="#707070" stroke-width="2" stroke-linecap="round" stroke-linejoin="round"/>
</svg>
