<svg width="94" height="92" viewBox="0 0 94 92" fill="none" xmlns="http://www.w3.org/2000/svg">
<path d="M47 34.5003V49.8336M47 65.167H47.0392M40.3025 14.797L7.12835 69.0003C6.44438 70.1596 6.08247 71.4739 6.07864 72.8126C6.07481 74.1513 6.42919 75.4676 7.10652 76.6306C7.78386 77.7937 8.76053 78.7628 9.93938 79.4417C11.1182 80.1206 12.4582 80.4856 13.8259 80.5003H80.1742C81.5419 80.4856 82.8818 80.1206 84.0607 79.4417C85.2395 78.7628 86.2162 77.7937 86.8935 76.6306C87.5709 75.4676 87.9252 74.1513 87.9214 72.8126C87.9176 71.4739 87.5557 70.1596 86.8717 69.0003L53.6975 14.797C52.9993 13.6704 52.0162 12.7389 50.843 12.0925C49.6699 11.446 48.3463 11.1064 47 11.1064C45.6537 11.1064 44.3302 11.446 43.157 12.0925C41.9839 12.7389 41.0007 13.6704 40.3025 14.797Z" stroke="#707070" stroke-width="7" stroke-linecap="round" stroke-linejoin="round"/>
</svg>
