<svg width="20" height="20" viewBox="0 0 20 20" fill="none" xmlns="http://www.w3.org/2000/svg">
<g id="Process icon">
<path id="Vector" d="M19 11C18.7348 11 18.4805 10.8946 18.2929 10.7071C18.1054 10.5195 18 10.2652 18 9.99998C18.0008 8.23952 17.4205 6.52803 16.3491 5.13109C15.2778 3.73415 13.7753 2.72987 12.0749 2.2741C10.3744 1.81833 8.57109 1.93656 6.94471 2.61043C5.31832 3.28429 3.95983 4.47613 3.08003 6.00098C2.94715 6.23052 2.72853 6.39788 2.47227 6.46624C2.216 6.5346 1.94307 6.49835 1.71353 6.36548C1.48398 6.23261 1.31662 6.01399 1.24826 5.75772C1.17991 5.50145 1.21615 5.22852 1.34903 4.99898C2.44928 3.09322 4.14771 1.60383 6.18084 0.761867C8.21396 -0.0800919 10.4681 -0.22755 12.5936 0.342368C14.7191 0.912286 16.5971 2.16772 17.9362 3.91391C19.2754 5.66009 20.0008 7.79941 20 9.99998C20 10.2652 19.8947 10.5195 19.7071 10.7071C19.5196 10.8946 19.2652 11 19 11ZM17.875 20C17.6098 20 17.3555 19.8946 17.1679 19.7071C16.9804 19.5196 16.875 19.2652 16.875 19V15.5H13.375C13.1098 15.5 12.8555 15.3946 12.6679 15.2071C12.4804 15.0196 12.375 14.7652 12.375 14.5C12.375 14.2348 12.4804 13.9804 12.6679 13.7929C12.8555 13.6053 13.1098 13.5 13.375 13.5H17.875C18.1402 13.5 18.3946 13.6053 18.5821 13.7929C18.7697 13.9804 18.875 14.2348 18.875 14.5V19C18.875 19.2652 18.7697 19.5196 18.5821 19.7071C18.3946 19.8946 18.1402 20 17.875 20Z" fill="#707070"/>
<path id="Vector_2" d="M10 20C7.34865 19.9974 4.80665 18.9429 2.93186 17.0681C1.05707 15.1934 0.00264738 12.6514 0 10C0 9.73478 0.105357 9.48043 0.292893 9.29289C0.48043 9.10536 0.734784 9 1 9C1.26522 9 1.51957 9.10536 1.70711 9.29289C1.89464 9.48043 2 9.73478 2 10C1.99924 11.7605 2.57956 13.472 3.65091 14.8689C4.72225 16.2658 6.22472 17.2701 7.92516 17.7259C9.6256 18.1816 11.4289 18.0634 13.0553 17.3896C14.6817 16.7157 16.0402 15.5239 16.92 13.999C16.9858 13.8853 17.0733 13.7858 17.1776 13.7059C17.2819 13.6261 17.4009 13.5676 17.5278 13.5337C17.6547 13.4999 17.787 13.4914 17.9172 13.5087C18.0473 13.5259 18.1728 13.5687 18.2865 13.6345C18.4002 13.7003 18.4997 13.7878 18.5796 13.8921C18.6594 13.9964 18.7179 14.1154 18.7518 14.2423C18.7856 14.3692 18.7941 14.5015 18.7768 14.6317C18.7596 14.7618 18.7168 14.8873 18.651 15.001C17.7717 16.5176 16.5102 17.7773 14.9923 18.6544C13.4744 19.5315 11.7531 19.9955 10 20Z" fill="#707070"/>
<path id="Vector_3" d="M6.625 6.5H2.125C1.85978 6.5 1.60543 6.39464 1.41789 6.20711C1.23036 6.01957 1.125 5.76522 1.125 5.5V1C1.125 0.734784 1.23036 0.48043 1.41789 0.292893C1.60543 0.105357 1.85978 0 2.125 0C2.39022 0 2.64457 0.105357 2.83211 0.292893C3.01964 0.48043 3.125 0.734784 3.125 1V4.5H6.625C6.89022 4.5 7.14457 4.60536 7.33211 4.79289C7.51964 4.98043 7.625 5.23478 7.625 5.5C7.625 5.76522 7.51964 6.01957 7.33211 6.20711C7.14457 6.39464 6.89022 6.5 6.625 6.5Z" fill="#707070"/>
</g>
</svg>
