<svg width="23" height="21" viewBox="0 0 23 21" fill="none" xmlns="http://www.w3.org/2000/svg">
<path d="M4.59375 3.80357V16.3929H19.2031C19.4145 16.3929 19.6172 16.4775 19.7666 16.6282C19.916 16.7789 20 16.9833 20 17.1964C20 17.4095 19.916 17.6139 19.7666 17.7646C19.6172 17.9153 19.4145 18 19.2031 18H3.79688C3.58553 18 3.38284 17.9153 3.2334 17.7646C3.08396 17.6139 3 17.4095 3 17.1964V3.80357C3 3.59045 3.08396 3.38606 3.2334 3.23536C3.38284 3.08466 3.58553 3 3.79688 3C4.00822 3 4.21091 3.08466 4.36035 3.23536C4.50979 3.38606 4.59375 3.59045 4.59375 3.80357ZM19.7662 6.51429L14.1881 12.1393C14.0387 12.2898 13.8362 12.3743 13.625 12.3743C13.4138 12.3743 13.2113 12.2898 13.0619 12.1393L10.4375 9.49286L7.5475 12.4071C7.39647 12.5493 7.19661 12.6267 6.99007 12.6231C6.78353 12.6195 6.58645 12.5351 6.44037 12.3879C6.29431 12.2406 6.21068 12.0418 6.20711 11.8335C6.20354 11.6253 6.28032 11.4237 6.42125 11.2714L9.87437 7.78929C10.0238 7.6388 10.2263 7.55428 10.4375 7.55428C10.6487 7.55428 10.8512 7.6388 11.0006 7.78929L13.625 10.4357L18.64 5.37857C18.791 5.23645 18.9909 5.15903 19.1974 5.16263C19.404 5.16623 19.6011 5.25056 19.7471 5.39786C19.8932 5.54516 19.9768 5.7439 19.9804 5.95217C19.984 6.16045 19.9072 6.36199 19.7662 6.51429Z" fill="#FEFEFE"/>
</svg>
