<svg width="23" height="21" viewBox="0 0 23 21" fill="none" xmlns="http://www.w3.org/2000/svg">
<path d="M4.717 18C4.22754 18 3.81919 17.7851 3.49194 17.3552C3.16469 16.9254 3.00071 16.3885 3 15.7446V5.25535C3 4.61243 3.16398 4.07604 3.49194 3.64618C3.8199 3.21632 4.22825 3.00093 4.717 3H18.2841C18.7728 3 19.1812 3.21539 19.5091 3.64618C19.8371 4.07697 20.0007 4.61336 20 5.25535V15.746C20 16.388 19.8364 16.9244 19.5091 17.3552C19.1819 17.786 18.7732 18.0009 18.283 18H4.717ZM10.9687 16.1246V9.6558H4.0625V16.1246H10.9687ZM12.0312 16.1246H18.9375V9.6558H12.0312V16.1246ZM4.0625 8.26016H18.9375V5.25396C18.9375 5.00367 18.8762 4.79805 18.7537 4.63708C18.6311 4.47612 18.4746 4.39564 18.2841 4.39564H4.71594C4.5254 4.39564 4.36885 4.47612 4.24631 4.63708C4.12377 4.79805 4.0625 5.00414 4.0625 5.25535V8.26016Z" fill="#FEFEFE"/>
</svg>
