<svg width="32" height="32" viewBox="0 0 32 32" fill="none" xmlns="http://www.w3.org/2000/svg">
<path d="M32 2V10C32 10.5667 31.808 11.042 31.424 11.426C31.04 11.81 30.5653 12.0013 30 12C29.4347 11.9987 28.96 11.8067 28.576 11.424C28.192 11.0413 28 10.5667 28 10V6.85L20.05 14.75C20.6833 15.6833 21.1667 16.6753 21.5 17.726C21.8333 18.7767 22 19.868 22 21C22 24.0667 20.9333 26.6667 18.8 28.8C16.6667 30.9333 14.0667 32 11 32C7.93333 32 5.33333 30.9333 3.2 28.8C1.06667 26.6667 0 24.0667 0 21C0 17.9333 1.06667 15.3333 3.2 13.2C5.33333 11.0667 7.93333 10 11 10C12.1 10 13.1833 10.158 14.25 10.474C15.3167 10.79 16.3 11.282 17.2 11.95L25.15 4H22C21.4333 4 20.9587 3.808 20.576 3.424C20.1933 3.04 20.0013 2.56533 20 2C19.9987 1.43467 20.1907 0.96 20.576 0.576C20.9613 0.192 21.436 0 22 0H30C30.5667 0 31.042 0.192 31.426 0.576C31.81 0.96 32.0013 1.43467 32 2ZM11 14C9.06666 14 7.41667 14.6833 6.05 16.05C4.68333 17.4167 4 19.0667 4 21C4 22.9333 4.68333 24.5833 6.05 25.95C7.41667 27.3167 9.06666 28 11 28C12.9333 28 14.5833 27.3167 15.95 25.95C17.3167 24.5833 18 22.9333 18 21C18 19.0667 17.3167 17.4167 15.95 16.05C14.5833 14.6833 12.9333 14 11 14Z" fill="#398CCB"/>
</svg>
