<svg width="17" height="22" viewBox="0 0 17 22" fill="none" xmlns="http://www.w3.org/2000/svg">
<mask id="path-1-inside-1_664_4846" fill="white">
<path d="M17 1.22222H12.75L11.5357 0H5.46429L4.25 1.22222H0V3.66667H17M1.21429 19.5556C1.21429 20.2039 1.47015 20.8256 1.9256 21.284C2.38104 21.7425 2.99876 22 3.64286 22H13.3571C14.0012 22 14.619 21.7425 15.0744 21.284C15.5298 20.8256 15.7857 20.2039 15.7857 19.5556V4.88889H1.21429V19.5556Z"/>
</mask>
<path d="M12.75 1.22222L12.0406 1.92702L12.3339 2.22222H12.75V1.22222ZM11.5357 0L12.2451 -0.7048L11.9518 -1H11.5357V0ZM5.46429 0V-1H5.04816L4.75488 -0.7048L5.46429 0ZM4.25 1.22222V2.22222H4.66612L4.95941 1.92702L4.25 1.22222ZM0 1.22222V0.222222H-1V1.22222H0ZM0 3.66667H-1V4.66667H0V3.66667ZM1.21429 19.5556H0.214286H1.21429ZM15.7857 4.88889H16.7857V3.88889H15.7857V4.88889ZM1.21429 4.88889V3.88889H0.214286V4.88889H1.21429ZM17 1.22222V0.222222H12.75V1.22222V2.22222H17V1.22222ZM12.75 1.22222L13.4594 0.517422L12.2451 -0.7048L11.5357 0L10.8263 0.7048L12.0406 1.92702L12.75 1.22222ZM11.5357 0V-1H5.46429V0V1H11.5357V0ZM5.46429 0L4.75488 -0.7048L3.54059 0.517422L4.25 1.22222L4.95941 1.92702L6.17369 0.7048L5.46429 0ZM4.25 1.22222V0.222222H0V1.22222V2.22222H4.25V1.22222ZM0 1.22222H-1V3.66667H0H1V1.22222H0ZM0 3.66667V4.66667H17V3.66667V2.66667H0V3.66667ZM1.21429 19.5556H0.214286C0.214286 20.467 0.573937 21.3424 1.21619 21.9888L1.9256 21.284L2.635 20.5792C2.36637 20.3088 2.21429 19.9407 2.21429 19.5556H1.21429ZM1.9256 21.284L1.21619 21.9888C1.85866 22.6355 2.73143 23 3.64286 23V22V21C3.26609 21 2.90342 20.8494 2.635 20.5792L1.9256 21.284ZM3.64286 22V23H13.3571V22V21H3.64286V22ZM13.3571 22V23C14.2686 23 15.1413 22.6355 15.7838 21.9888L15.0744 21.284L14.365 20.5792C14.0966 20.8494 13.7339 21 13.3571 21V22ZM15.0744 21.284L15.7838 21.9888C16.4261 21.3424 16.7857 20.467 16.7857 19.5556H15.7857H14.7857C14.7857 19.9407 14.6336 20.3088 14.365 20.5792L15.0744 21.284ZM15.7857 19.5556H16.7857V4.88889H15.7857H14.7857V19.5556H15.7857ZM15.7857 4.88889V3.88889H1.21429V4.88889V5.88889H15.7857V4.88889ZM1.21429 4.88889H0.214286V19.5556H1.21429H2.21429V4.88889H1.21429Z" fill="#707070" mask="url(#path-1-inside-1_664_4846)"/>
<path d="M16.5 2V3" stroke="#707070"/>
</svg>
