<svg width="50" height="47" viewBox="0 0 50 47" fill="none" xmlns="http://www.w3.org/2000/svg">
<path d="M10.3519 10.0955L8.4563 8.59412C7.91921 8.16875 7.32493 7.99409 6.67348 8.07017C6.02202 8.14624 5.48311 8.45122 5.05673 8.98512C4.63035 9.51902 4.45476 10.1118 4.52996 10.7633C4.60516 11.4149 4.91131 11.9534 5.44841 12.3788L7.34403 13.8801C7.87659 14.306 8.47036 14.4813 9.12535 14.406C9.78033 14.3306 10.3198 14.025 10.7436 13.4891C11.1675 12.9532 11.3424 12.36 11.2685 11.7094C11.1945 11.0588 10.889 10.5208 10.3519 10.0955Z" fill="#FCA447"/>
<path d="M4.7721 25.2269L2.38601 25.6285C1.70996 25.7422 1.18227 26.0662 0.802971 26.6004C0.423669 27.1346 0.290077 27.7384 0.402195 28.412C0.514314 29.0856 0.838058 29.6125 1.37342 29.9927C1.90879 30.3729 2.5145 30.5061 3.19056 30.3924L5.57665 29.9908C6.25007 29.8807 6.77788 29.5575 7.1601 29.0213C7.54231 28.485 7.67577 27.8803 7.56047 27.2073C7.44517 26.5342 7.12063 26.0075 6.58685 25.627C6.05308 25.2465 5.44816 25.1131 4.7721 25.2269Z" fill="#FCA447"/>
<path d="M40.5318 8.32098L38.5782 9.74865C38.0247 10.1532 37.698 10.6791 37.5981 11.3266C37.4982 11.9741 37.6491 12.5739 38.0511 13.1259C38.453 13.6779 38.9784 14.004 39.6274 14.1042C40.2763 14.2044 40.8776 14.0523 41.4311 13.6478L43.3846 12.2201C43.9375 11.8201 44.2646 11.2948 44.3662 10.6441C44.4678 9.9934 44.3163 9.393 43.9118 8.84288C43.5073 8.29275 42.9812 7.96711 42.3335 7.86596C41.6859 7.7648 41.0853 7.91648 40.5318 8.32098Z" fill="#FCA447"/>
<path d="M10.0935 37.365L8.59954 39.2652C8.17626 39.8036 8.00444 40.3977 8.08408 41.0476C8.16372 41.6976 8.47207 42.2339 9.00914 42.6567C9.54621 43.0796 10.1409 43.2517 10.7932 43.1732C11.4455 43.0947 11.9833 42.7862 12.4066 42.2479L13.9005 40.3476C14.3244 39.8138 14.4968 39.2201 14.4179 38.5667C14.339 37.9132 14.03 37.3763 13.4909 36.9561C12.9519 36.5358 12.3567 36.3643 11.7054 36.4415C11.054 36.5187 10.5167 36.8266 10.0935 37.365Z" fill="#FCA447"/>
<path d="M26.187 4.89495L26.2192 2.4796C26.2283 1.79525 26.0037 1.21892 25.5453 0.75061C25.0869 0.2823 24.5158 0.0427956 23.8319 0.0320975C23.148 0.0213993 22.5706 0.244839 22.0999 0.702413C21.6292 1.15999 21.3892 1.73095 21.3801 2.4153L21.3479 4.83065C21.3356 5.51173 21.5594 6.08805 22.0194 6.5596C22.4793 7.03115 23.0513 7.27067 23.7352 7.27814C24.4192 7.28562 24.9965 7.06138 25.4672 6.60541C25.9379 6.14945 26.1779 5.5793 26.187 4.89495Z" fill="#FCA447"/>
<path d="M26.187 43.8949L26.2192 41.4796C26.2283 40.7953 26.0037 40.2189 25.5453 39.7506C25.0869 39.2823 24.5158 39.0428 23.8319 39.0321C23.148 39.0214 22.5706 39.2448 22.0999 39.7024C21.6292 40.16 21.3892 40.7309 21.3801 41.4153L21.3479 43.8306C21.3356 44.5117 21.5594 45.088 22.0194 45.5596C22.4793 46.0312 23.0513 46.2707 23.7352 46.2781C24.4192 46.2856 24.9965 46.0614 25.4672 45.6054C25.9379 45.1494 26.1779 44.5793 26.187 43.8949Z" fill="#FCA447"/>
<path d="M41.326 38.4674L39.4304 36.9661C38.8933 36.5407 38.2991 36.366 37.6476 36.4421C36.9961 36.5182 36.4572 36.8232 36.0308 37.3571C35.6045 37.891 35.4289 38.4837 35.5041 39.1353C35.5793 39.7869 35.8854 40.3254 36.4225 40.7507L38.3182 42.2521C38.8507 42.678 39.4445 42.8533 40.0995 42.7779C40.7545 42.7026 41.2939 42.397 41.7177 41.8611C42.1416 41.3252 42.3165 40.7319 42.2426 40.0814C42.1687 39.4308 41.8631 38.8928 41.326 38.4674Z" fill="#FCA447"/>
<path d="M46.4706 21.3106L44.051 21.3425C43.3655 21.3515 42.7943 21.591 42.3375 22.0608C41.8807 22.5307 41.656 23.107 41.6634 23.7897C41.6708 24.4725 41.9099 25.0427 42.3806 25.5003C42.8513 25.9579 43.4294 26.1822 44.1149 26.1732L46.5345 26.1413C47.2168 26.1355 47.788 25.8969 48.248 25.4254C48.708 24.9539 48.9327 24.3768 48.9221 23.694C48.9114 23.0113 48.6716 22.4411 48.2025 21.9835C47.7334 21.5259 47.1561 21.3015 46.4706 21.3106Z" fill="#FCA447"/>
</svg>
