<svg width="19" height="18" viewBox="0 0 19 18" fill="none" xmlns="http://www.w3.org/2000/svg">
<path id="Vector" d="M19 1.125V5.625C19 5.94375 18.886 6.21113 18.658 6.42713C18.43 6.64313 18.1482 6.75075 17.8125 6.75C17.4768 6.74925 17.195 6.64125 16.967 6.426C16.739 6.21075 16.625 5.94375 16.625 5.625V3.85313L11.9047 8.29688C12.2807 8.82187 12.5677 9.37988 12.7656 9.97087C12.9635 10.5619 13.0625 11.1757 13.0625 11.8125C13.0625 13.5375 12.4292 15 11.1625 16.2C9.89583 17.4 8.35208 18 6.53125 18C4.71042 18 3.16667 17.4 1.9 16.2C0.633333 15 0 13.5375 0 11.8125C0 10.0875 0.633333 8.625 1.9 7.425C3.16667 6.225 4.71042 5.625 6.53125 5.625C7.18437 5.625 7.8276 5.71388 8.46094 5.89163C9.09427 6.06938 9.67812 6.34613 10.2125 6.72188L14.9328 2.25H13.0625C12.726 2.25 12.4442 2.142 12.217 1.926C11.9898 1.71 11.8758 1.443 11.875 1.125C11.8742 0.807 11.9882 0.54 12.217 0.324C12.4458 0.108 12.7276 0 13.0625 0H17.8125C18.149 0 18.4312 0.108 18.6592 0.324C18.8872 0.54 19.0008 0.807 19 1.125ZM6.53125 7.875C5.38333 7.875 4.40365 8.25937 3.59219 9.02812C2.78073 9.79688 2.375 10.725 2.375 11.8125C2.375 12.9 2.78073 13.8281 3.59219 14.5969C4.40365 15.3656 5.38333 15.75 6.53125 15.75C7.67916 15.75 8.65885 15.3656 9.47031 14.5969C10.2818 13.8281 10.6875 12.9 10.6875 11.8125C10.6875 10.725 10.2818 9.79688 9.47031 9.02812C8.65885 8.25937 7.67916 7.875 6.53125 7.875Z" fill="#707070"/>
</svg>
