<svg width="12" height="19" viewBox="0 0 12 19" fill="none" xmlns="http://www.w3.org/2000/svg">
<path id="Vector" d="M4.90909 16.7647H3.81818C3.50909 16.7647 3.25018 16.6574 3.04145 16.4428C2.83273 16.2282 2.728 15.963 2.72727 15.6471C2.72655 15.3311 2.83127 15.0659 3.04145 14.8513C3.25164 14.6367 3.51055 14.5294 3.81818 14.5294H4.90909V12.1824C3.47273 11.9216 2.29527 11.2182 1.37673 10.0722C0.458183 8.92627 -0.000726409 7.59925 8.6306e-07 6.09118C8.6306e-07 4.39608 0.586546 2.95729 1.75964 1.77482C2.93273 0.592353 4.34618 0.000745801 6 7.02923e-07C7.65382 -0.000744395 9.06763 0.590863 10.2415 1.77482C11.4153 2.95878 12.0015 4.39757 12 6.09118C12 7.6 11.5407 8.92739 10.6222 10.0734C9.70363 11.2193 8.52654 11.9223 7.09091 12.1824V14.5294H8.18182C8.49091 14.5294 8.75018 14.6367 8.95963 14.8513C9.16909 15.0659 9.27345 15.3311 9.27273 15.6471C9.272 15.963 9.16727 16.2286 8.95854 16.4439C8.74982 16.6593 8.49091 16.7662 8.18182 16.7647H7.09091V17.8823C7.09091 18.199 6.98618 18.4646 6.77673 18.6792C6.56727 18.8938 6.30836 19.0007 6 19C5.69164 18.9993 5.43273 18.892 5.22327 18.6781C5.01382 18.4643 4.90909 18.199 4.90909 17.8823V16.7647ZM6 10.0588C7.05454 10.0588 7.95454 9.67696 8.7 8.91323C9.44545 8.14951 9.81818 7.22745 9.81818 6.14706C9.81818 5.06667 9.44545 4.14461 8.7 3.38088C7.95454 2.61716 7.05454 2.23529 6 2.23529C4.94545 2.23529 4.04545 2.61716 3.3 3.38088C2.55455 4.14461 2.18182 5.06667 2.18182 6.14706C2.18182 7.22745 2.55455 8.14951 3.3 8.91323C4.04545 9.67696 4.94545 10.0588 6 10.0588Z" fill="#707070"/>
</svg>
