<svg width="34" height="51" viewBox="0 0 34 51" fill="none" xmlns="http://www.w3.org/2000/svg">
<path d="M13.6896 10V10C13.6896 11.0085 12.872 11.8261 11.8635 11.8261H9.84478C7.72137 11.8261 6 13.5475 6 15.6709V41C6 43.7614 8.23858 46 11 46H24C26.7614 46 29 43.7614 29 41V15.6365C29 13.5321 27.294 11.8261 25.1896 11.8261H23.2052C22.1967 11.8261 21.3791 11.0085 21.3791 10V10" stroke="#398CCB" stroke-linejoin="round"/>
<rect x="12.4695" y="6.5" width="10.2366" height="2.65217" fill="#398CCB" stroke="#398CCB"/>
<path d="M9.83331 31.314L10.6432 30.8556C11.0656 30.6165 11.5825 30.6165 12.0049 30.8556V30.8556C12.4945 31.1327 13.1032 31.0854 13.5442 30.736L13.8796 30.4702" stroke="#398CCB" stroke-linecap="round"/>
<path d="M17.7017 37.3689L17.9083 36.4679C18.016 35.9986 18.3663 35.6205 18.8292 35.4741V35.4741C19.3654 35.3045 19.7428 34.8276 19.7809 34.2714L19.8101 33.8454" stroke="#398CCB" stroke-linecap="round"/>
<path d="M10.6852 35.9713L11.5013 36.4187C11.9262 36.6516 12.1955 37.0905 12.2087 37.5714V37.5714C12.2239 38.1284 12.5815 38.6205 13.1096 38.8114L13.5149 38.9579" stroke="#398CCB" stroke-linecap="round"/>
<path d="M11.6519 43.238L12.392 42.6756C12.778 42.3823 13.2902 42.3133 13.7413 42.4938V42.4938C14.2641 42.703 14.8609 42.5748 15.2502 42.1697L15.5464 41.8615" stroke="#398CCB" stroke-linecap="round"/>
<path d="M25.8428 38.6853L25.011 39.1033C24.5771 39.3214 24.0608 39.2959 23.6509 39.0364V39.0364C23.1758 38.7355 22.5655 38.7528 22.1076 39.0801L21.7592 39.3291" stroke="#398CCB" stroke-linecap="round"/>
<path d="M22.6111 29.2355L23.4362 29.6663C23.8659 29.8906 24.1441 30.3239 24.1671 30.8045V30.8045C24.1938 31.3611 24.5614 31.8459 25.0934 32.0261L25.5016 32.1644" stroke="#398CCB" stroke-linecap="round"/>
<line x1="8.12964" y1="26.595" x2="26.8704" y2="26.595" stroke="#398CCB"/>
</svg>
